<svg preserveAspectRatio="xMinYMin meet" viewBox="0 0 200 200" class="avatar-elements__svg" xmlns:xlink="http://www.w3.org/1999/xlink" version="1.1" xmlns="http://www.w3.org/2000/svg" id="svga-svgcanvas-elements-clothes-1"><defs id="SvgjsDefs2811"></defs><g transform="matrix(0.9,0,0,0.9,10.009089342504737,3.7057849884033214)" id="SvgjsG2812"><path opacity="1" stroke-width="none" fill="#09aac5" data-stroketype="none" data-filltype="tone" data-colored="true" d="M1.509 238.026c0.211-43.783 8.946-50.671 43.101-55.823 13.099-1.976 25.278-3.824 31.798-13.197 -1.371-1.441-1.8-3.341-0.473-4.779 -0.706-1.084-0.696-3.223 1.426-3.401 0.198 1.43-0.4 0.875 2.776 2.219 19.874 8.397 27.911 4.119 39.35 0.265 2.39-0.809 2.695-0.969 2.955-2.997 0.506 0.199 0.846 0.559 0.891 0.712 0.56 0.894-0.327 2.033-0.483 2.944 1.049 1.008 0.442 2.331-0.431 3.502 15.514 25.709 65.877 1.542 74.242 44.425 1.391 12.381 1.61 25.702 1.626 26.956C197.287 238.851 66.557 239.192 1.509 238.026z" id="SvgjsPath2814"></path><path opacity="1" stroke-width="none" fill="#1fbad4" data-stroketype="none" data-filltype="hl1" data-colored="true" d="M191.032 202.707c5.877 8.853 4.81 18.807 6.837 24.292 0-11-2.36-20.973-6.011-27.133 -9.742-16.472-26.089-14.936-43.077-18.336 -16.079-3.218-21.88-6.521-25.599-12.503C135.104 189.31 175.119 178.735 191.032 202.707zM76.817 169.027c-3.719 5.981-9.52 9.285-25.599 12.503 -16.988 3.4-33.335 1.864-43.077 18.336 -3.65 6.16-6.011 16.133-6.011 27.133 2.027-5.485 0.96-15.439 6.837-24.292C24.881 178.735 64.896 189.31 76.817 169.027z" id="SvgjsPath2815"></path><path opacity="1" stroke-width="none" fill="#009cb6" data-stroketype="none" data-filltype="sd1" data-colored="true" d="M75.177 165.438c-2.58 9.201 40.672 8.591 30.123 8.857C96.484 174.524 72.865 172.321 75.177 165.438zM111.789 173.288c10.395-3.424 11.681-7.793 11.681-7.793 -0.05 0.053-0.198 0.512-0.668 0.945 -0.907 0.995-10.79 6.722-12.128 7.167C110.674 173.607 111.118 173.52 111.789 173.288zM105.973 171.604c14.206-1.792 16.845-7.246 16.845-7.246 -4.313 6.62-29.991 10.398-46.95-0.03C83.98 170.032 94.415 173.021 105.973 171.604z" id="SvgjsPath2816"></path><path opacity="1" stroke-width="none" fill="#008197" data-stroketype="none" data-filltype="sd3" data-colored="true" d="M196.759 211.875c-8.383-42.978-59.187-18.908-74.22-44.399 0.885-1.192 1.451-2.551 0.38-3.58 0.405-0.852 1.035-2.112 0.51-2.9 -0.061-0.205-0.485-0.629-1.069-0.819l-0.061 0.46c0 0 0 0 0.001 0 -0.278 2.326-1.229 1.798-5.961 3.72 -18.553 7.739-31.947 0.168-38.58-2.399 -0.25-0.07-0.261-0.64-0.261-1.008 -0.002 0.003-0.014 0.005-0.018 0.007l-0.033-0.235c-0.613 0.026-1.382 0.307-1.728 0.886 0 0.01-0.01 0.01-0.01 0.02 -0.357 0.559-0.442 1.75 0.1 2.591 -1.129 1.227-1.058 3.197 0.47 4.8 -15.166 21.719-62.593 2.866-72.31 39.14 -2.093 9.049-2.56 28.104-2.56 29.97 0 0 62.375 1.143 196.89 0.82 0.03-0.01 0.061-0.01 0.09 0C198.389 237.945 198.151 224.264 196.759 211.875zM1.519 237.766c0.27-5.87 0.85-15.73 2.22-25.79 9.012-40.5 55.892-18.97 72.77-42.73 5.653 5.751 24.777 6.521 31.05 4.851 -9.29 1.206-36.968-2.302-31.61-9.7 0.315 0.445 1.567 1.588 2.135 1.629 -0.039 0.077 0.044-0.082 0.002-0.004 -0.227-0.319-1.636-1.794-1.727-2.025 -0.338-0.42-0.451-1.741-0.17-2.21 0.144-0.283 0.475-0.453 0.774-0.562 0.359 2.418-0.533 1.245 7.996 4.361 19.91 7.275 28.574 0.224 35.76-2.25 1.653-0.534 1.917-1.917 1.959-2.43 0.063 0.048 0.118 0.095 0.132 0.14 0.643 0.79 0.121 1.876-0.19 2.841 -0.01 0.01-0.01 0.029-0.02 0.04 -0.213 0.564-0.601 1.341-0.949 1.841 0.569-0.422 0.846-1.043 1.148-1.621 2.183 2.98-8.034 7.582-11.37 9.25 1.98-0.792 7.546-1.585 10.921-5.69 16.262 27.701 70.326-0.145 74.72 52.261 0.903 10.771 0.804 9.778 1.22 18.81C95.539 237.251 111.997 237.184 1.519 237.766z" id="SvgjsPath2817"></path></g></svg>