<svg preserveAspectRatio="xMinYMin meet" viewBox="0 0 200 200" class="avatar-elements__svg" xmlns:xlink="http://www.w3.org/1999/xlink" version="1.1" xmlns="http://www.w3.org/2000/svg" id="svga-svgcanvas-elements-clothes-4"><defs id="SvgjsDefs2836"></defs><g transform="matrix(0.9,0,0,0.9,10.023332898318762,4.246078443527221)" id="SvgjsG2837"><path opacity="1" stroke-width="none" fill="#09aac5" data-stroketype="none" data-filltype="tone" data-colored="true" d="M2.258 224.437c-2.481-20.683 6.836-35.34 29.389-41.745 6.619-1.876 14.221-2.843 15.221-2.903 -0.032-0.179-0.039-0.169-0.039-0.532h-0.03c0.074-6.837 7.69-5.493 9.87-5.953 8.623-1.833 11.551-10.877 21.398-8.496 0.242 2.074 0.063 4.47-1.168 13.335 9.286 19.972 19.359 18.247 22.939 29.43 3.245-10.001 14.771-11.587 23.26-29.433 -0.558-5.015-1.771-9.396-1.261-13.568l0.05-0.036c6.596-2.198 9.477 0.747 12.104 3.281 8.005 7.727 12.259 2.831 16.262 6.355 1.592 1.403 2.167 3.398 2.167 5.54 18.244 2.649 49.051 3.68 44.89 44.185l0.079 0.09C178.926 223.985 54.422 228.609 2.258 224.437z" id="SvgjsPath2839"></path><path opacity="1" stroke-width="none" fill="#009cb6" data-stroketype="none" data-filltype="sd1" data-colored="true" d="M100.187 206.617c3.609-9.059 14.44-11.18 22.618-27.884 0.08-0.092 0.291-0.507 0.557-1.056 -0.135-1.56-0.313-3.188-1.034-4.899 -0.442-2.854-0.796-5.524-0.496-8.114 1.68 0.489 3.271 1.072 4.362 2.264 1.601 1.748 0.386 4.776-1.148 7.69C122.164 187.172 114.949 196.237 100.187 206.617zM168.869 197.402c2.5 8.834 4.167 18.167 2.165 27.128 1.67-0.041 2.288-0.081 3.84-0.118C175.566 215.002 173.869 204.736 168.869 197.402zM132 199c-10.913 6.366-21.885 8.816-31.799 17.276 -9.916-8.437-20.994-9.911-31.906-16.276 -5-2-12.672-9.104-17.36-14.104 14.75 22.375 25.309 16.026 48.934 31.108 23.625-15.082 34.25-9.957 49-32.332C144.182 189.673 137 197 132 199zM99.796 207.68c-3.609-9.059-14.018-12.242-22.196-28.946 -0.08-0.092-0.291-0.507-0.557-1.056 0.135-1.56-0.22-3.273 0.5-4.985 0.442-2.854 0.635-5.185 0.335-7.774 -1.68 0.489-2.577 0.818-3.667 2.01 -1.601 1.748-0.386 4.776 1.148 7.69C78.241 187.172 85.034 197.3 99.796 207.68zM28.536 196.402c-3.667 8-3.697 18.6-3.005 28.01 1.552 0.037 2.17 0.077 3.84 0.118C27.369 215.569 27.869 205.402 28.536 196.402zM99.869 209.409c13.958-4.18 28.804-11.829 41.144-30.515 -11.142 15.02-27.705 23.887-40.827 29.327 -13.536-4.901-29.742-14.66-39.19-27.776C72.066 198.567 85.911 205.229 99.869 209.409z" id="SvgjsPath2840"></path><path opacity="1" stroke-width="none" fill="#1fbad4" data-stroketype="none" data-filltype="hl1" data-colored="true" d="M197.389 223.985c-0.097 0-0.216 0.001-0.318 0.001 -0.359-7.608-1.073-15.39-5.076-22.251 -8-15-25-15.375-40.994-18.735 -2 0-3.032-5.541-4.506-7.015 -1.25-1.25-10.875-1.25-13.926-9.508 0.494 0.438 0.963 0.895 1.423 1.338 8.005 7.727 12.259 2.831 16.262 6.355 1.592 1.403 2.167 3.398 2.167 5.54 18.244 2.649 49.051 3.68 44.89 44.185L197.389 223.985zM2.017 224.985c0.097 0 0.216 0.001 0.318 0.001 0.359-7.608 1.173-13.796 5.176-20.657 8-15 25.299-18.367 41.293-21.728 2.939-1.116 1.391-3.242 2.864-4.716 1.25-1.25 8.2-1.275 17.825-11.4 -0.494 0.438-2.62 0.887-3.08 1.33 -8.005 7.727-14.045 5.545-16.262 6.355 -2.735 1-3.158 3.423-3.158 5.564 -18.244 2.649-46.994 8-44.898 45.16L2.017 224.985z" id="SvgjsPath2841"></path><path opacity="1" stroke-width="none" fill="#008197" data-stroketype="none" data-filltype="sd3" data-colored="true" d="M196.159 204.835c-6.314-22.445-28.114-22.805-43.64-25.21 0-8.395-7.898-6.726-11.53-7.5 -8.012-1.717-7.761-10.998-19.24-7.649 -0.483 3.964 0.445 7.44 1.26 13.62 -8.416 17.668-20.089 19.653-23.169 29.149 -3.372-10.536-13.67-9.479-22.84-29.09 1.274-9.228 1.403-11.365 1.16-13.43 -8.753-1.998-10.727 3.679-18.64 7.47 -4.8 2.249-6.159 0.228-10.28 2.24 -1.71 0.83-2.57 3.08-2.51 4.91 -0.01 0.01 0 0.01 0 0.01 0 0.12 0 0.229 0.02 0.34 -1 0.065-8.597 1.049-15.13 2.9 -22.821 6.48-31.958 21.382-29.45 41.939 10.13 0 20.114 3.728 175.28-0.069 7.202-0.181 19.426-0.381 19.939-0.381C197.569 223.085 198.475 213.097 196.159 204.835zM2.309 224.315c-1.146-27.296 17.235-39.776 44.34-44.05 15.316 25.402 34.063 21.702 53.02 35.91 -17.183-14.276-35.189-12.385-52.5-36.25 -0.194-1.997 0.851-4.209 3.01-5.07 1.53-0.601 3.17-0.43 4.77-0.42 6.04 0.05 10.69-4.681 15.16-8.15 2.13-1.42 5.3-1.49 7.84-1.1 0.198 3.302-1.077 8.271-1.5 11.79 -0.89-1.96-1.73-3.971-2.57-5.98 10.623 31.175 21.215 24.115 25.95 37.05 -1-0.279-17.902-6.352-31.37-19.739 -2.86-2.831-8.527-9.069-8.96-9.65 16.676 22.564 27.331 23.715 40.38 29.53 0 0.01 0.01 0.03 0.01 0.04 0.011 0.033 0.064 0.188 0.08 0.22 0.06-0.03 0.13-0.06 0.2-0.08 0.02-0.02 0.04-0.03 0.07-0.03 1.807-0.882 13.688-5.019 22.729-11.229 9.309-6.403 19.925-20.281 19.131-19.28 -15.556 15.814-17.958 19.4-41.931 30.37 -0.02 0-0.04-0.01-0.06-0.02 -0.02-0.11-0.05-0.221-0.09-0.33 0.01-0.051 0.03-0.101 0.05-0.15 4.212-11.556 16.587-7.09 26.84-38.78 -1.05 2.74-2.15 5.44-3.39 8.08 -0.389-4.649-1.741-8.305-1.591-12.13 1.777-0.593 6.598-0.873 7.931 0.46 5.566 4.755 6.012 8.24 15.08 8.24 2.9 0.019 6.703 0.384 7.13 5.71 -0.53 0.786-4.503 5.471-8.26 9.2 -13.155 13.082-24.923 13.333-43.13 27.25 0.45 0 1.37-0.96 1.73-1.21 14.236-10.101 24.469-9.945 37.56-20.641 6.031-4.927 11.838-12.81 12.46-13.81 0.021 0.01 0.051 0.01 0.07 0.01 24.023 4.132 45.554 8.064 44.61 43.83C89.435 223.233 55.562 226.094 2.309 224.315z" id="SvgjsPath2842"></path></g></svg>