<svg preserveAspectRatio="xMinYMin meet" viewBox="0 0 200 200" class="avatar-elements__svg" xmlns:xlink="http://www.w3.org/1999/xlink" version="1.1" xmlns="http://www.w3.org/2000/svg" id="svga-svgcanvas-elements-hair-2">
  <defs id="SvgjsDefs1528"/>
  <g transform="matrix(1,0,0,1,0,20)" id="SvgjsG1529">
    <path opacity="0.1" stroke-width="none" fill="#2a232b" data-stroketype="none" data-filltype="tone" data-colored="true" d="M152.307 91.487c-3.852-4.398-4.376-6.578-2.979-11.314 -3.135-2.417-4.33-5.415-2.256-11.703 -8.03-0.362-9.319-3.996-8.175-11.755 -4.594-0.54-7.891-3.289-8.357-8.541 -3.963 0.138-8.343-1.103-9.574-4.694 -4.476 0.66-6.139-0.673-7.297-3.01 -4.41 1.766-7.511 0.911-10.794-2.012 -2.949 0.936-5.324 0.157-7.744-1.107 -1.709 3.5-3.815 4.289-7.577 3.619 -1.134 4.489-5.215 7.274-11.498 5.855 -1.717 4.607-4.878 6.44-9.475 5.764 -2.797 4.744-7.751 6.055-13.437 5.505 1.914 4.99 0.686 7.206-3.663 8.643 2.276 5.206 3.236 6.714-0.048 11.011 3.455 5.17 1.254 11.14-2.436 12.382v0.423c-8.695-10.118-8.114-74.354-0.022-74.653 -1.651-7.591 101.586-6.334 101.586-1.216C156.112 15.083 158.648 87.485 152.307 91.487z" id="SvgjsPath1532"/>
    <path opacity="1" stroke-width="none" fill="#2a232b" data-stroketype="none" data-filltype="tone" data-colored="true" d="M152.306 91.585c-3.854-4.643-4.377-6.941-2.981-11.94 -3.133-2.549-4.329-5.714-2.254-12.349 -8.032-0.382-9.32-4.218-8.176-12.405 -4.592-0.569-7.891-3.47-8.357-9.013 -3.963 0.146-8.342-1.163-9.574-4.953 -4.475 0.696-6.137-0.71-7.296-3.178 -4.409 1.864-7.51 0.962-10.793-2.122 -2.949 0.986-5.324 0.166-7.743-1.168 -1.709 3.693-3.815 4.525-7.577 3.818 -1.134 4.737-5.215 7.677-11.497 6.178 -1.718 4.862-4.878 6.796-9.475 6.083 -2.797 5.005-7.751 6.39-13.435 5.809 1.914 5.266 0.685 7.604-3.663 9.121 2.275 5.494 3.235 7.085-0.048 11.62 3.455 5.457 1.253 11.754-2.437 13.065v0.445c3.952 11.448-9.554 16.223-11.48 6.834 -5.114-0.087-7.45-3.416-3.724-8.759 -7.115-1.293-6.373-7.842 0.1-11.886 -5.866-2.453-9.144-6.8-2.46-12.625 -8.059-3.511-6.461-10.86 0.006-16.754 -5.489-4.566-2.71-8.938 4.064-11.443 -2.809-5.928 0.644-10.55 7.04-11.991 -4.444-5.361-1.657-11.837 6.434-12.152C45.326 3.81 50.979 0.26 59.132 1.968c1.805-5.814 5.683-6.576 11.382-4.692 1.562-4.613 6.007-5.533 10.743-4.105 3.044-3.768 7.978-1.952 12.283 0.107 3.656-4.056 8.893-2.555 13.356 0.653 5.712-4.897 12.8-2.474 17.862 3.303 6.497-2.672 11.717-1.117 15.407 5.396 6.038-0.279 8.394 2.509 8.394 7.909 7.55 0.422 16.386 6.16 13.794 14.477 5.662 1.042 8.607 5.278 6.109 12.043 3.362 1.625 4.864 5.743 4.707 7.82 -0.178 2.294-1.575 4.652-2.786 6.823 5.17 3.334 6.954 10.875 3.206 14.727 2.481 3.13 0.363 10.575-4.989 14.529 2.983 3.18 3.861 4.363-3.475 10.415 4.771 6.469 1.16 11.849-3.096 11.849l0 0c-1.118 0-1.891-0.299-2.845-0.725C154.076 110.256 144.69 103.662 152.306 91.585z" id="SvgjsPath1533"/>
    <path opacity="1" stroke-width="none" fill="#1b141c" data-stroketype="none" data-filltype="sd1" data-colored="true" d="M161 88c-3 0-7 2-7 0 -0.902-2.708 0.643-4.227 3.159-6.358C155.256 82.731 153 81.867 153 81c-1.802-4.503-0.347-9.808 4.342-12.281C155.562 69.375 153.5 69.75 152 69c-2.398-3.198-1.593-9.58 1.89-12.016 -3.294 1.13-6.876 2.276-9.89 0.016 -3-4-1-11 4-14 -4 0-9 4-13 2 -4-3-1-7 2-10 -4 0-8 6-12 1 -1-2 1-4 1-6 -2 2-7 6-9 3 -1-3 3-5 3-8 -2 2-8 6-9 3 -1-2 0-6 3-7 -5 1-8 9-13 5 -1 0-2-4-1-6 -2 4-5 7-9 9 -1-2-3-4-2-6 -2 4-1 11-7 11 -1 0-4.061-3.793-4.061-5.793C77.939 33.207 78 38 75 40c-4 3-7-2-9-6 -2 6-3 12-9 14 -3 1-6-1-7-4 0 4-1.166 8.23 2 12 -4.096-3.56-8.275-1.443-12 0 4 6 10 14 0 17 5 1 10 7 7 11 -2 1-4-1-6-2 3.798 6.646 4.882 16.889-5.287 16.197 2.491 8.342 15.125 3.522 11.286-7.6v-0.445c3.69-1.311 5.891-7.609 2.437-13.065 3.284-4.535 2.324-6.125 0.048-11.62 4.348-1.516 5.577-3.855 3.663-9.121 5.684 0.581 10.638-0.803 13.435-5.809 4.597 0.713 7.757-1.222 9.475-6.083 6.282 1.499 10.362-1.441 11.497-6.178 3.762 0.707 5.868-0.125 7.577-3.818 2.419 1.334 4.794 2.155 7.743 1.168 3.283 3.084 6.384 3.986 10.793 2.122 1.159 2.467 2.821 3.874 7.296 3.178 1.232 3.79 5.611 5.099 9.574 4.953 0.467 5.543 3.766 8.444 8.357 9.013 -1.145 8.187 0.144 12.023 8.176 12.405 -2.075 6.635-0.879 9.8 2.254 12.349 -1.396 4.999-0.872 7.297 2.981 11.94 -6.637 10.525-0.362 16.882 4.742 13.207C153.603 99.472 155.788 91.475 161 88z" id="SvgjsPath1534"/>
    <path opacity="1" stroke-width="none" fill="#3a353a" data-stroketype="none" data-filltype="hl1" data-colored="true" d="M173.59 66.428c3.748-3.852 1.964-11.393-3.206-14.727 0.185-0.331 0.806-1.293 1.411-2.6 0.699-1.394 1.267-2.82 1.375-4.224 0.022-0.3 0.007-0.647-0.041-1.02 0.014-2.504-1.075-5.065-4.666-6.8 2.498-6.765-0.447-11.001-6.109-12.043 2.592-8.317-6.244-14.055-13.794-14.477 0-5.4-2.355-8.188-8.394-7.909 -3.69-6.513-8.91-8.067-15.407-5.396 -5.063-5.777-12.15-8.2-17.862-3.303 -4.464-3.208-9.7-4.709-13.356-0.653 -4.305-2.059-9.239-3.875-12.283-0.107 -4.736-1.428-9.182-0.508-10.743 4.105 -5.699-1.884-9.577-1.122-11.382 4.692C50.979 0.26 45.326 3.81 46.978 11.822c-8.091 0.315-10.878 6.791-6.434 12.152 -6.396 1.441-9.848 6.063-7.04 11.991 -6.775 2.506-9.553 6.877-4.064 11.443 -6.467 5.894-8.065 13.243-0.006 16.754 -6.684 5.824-3.406 10.172 2.46 12.625 -6.472 4.043-7.215 10.592-0.1 11.886 -0.225 0.323-0.426 0.637-0.607 0.945 -0.062 0.104-0.109 0.204-0.166 0.306 -0.11 0.2-0.221 0.399-0.313 0.592 -0.057 0.12-0.101 0.235-0.152 0.353 -0.072 0.167-0.145 0.335-0.203 0.498 -0.044 0.123-0.076 0.241-0.112 0.361 -0.045 0.148-0.09 0.297-0.124 0.44 -0.028 0.122-0.046 0.239-0.066 0.357 -0.022 0.132-0.043 0.264-0.055 0.392 -0.011 0.118-0.014 0.233-0.017 0.347 -0.002 0.118-0.002 0.235 0.005 0.348 0.007 0.114 0.02 0.226 0.035 0.335 0.015 0.104 0.034 0.205 0.057 0.305 0.025 0.11 0.055 0.217 0.09 0.321 0.03 0.089 0.064 0.176 0.101 0.261 0.045 0.105 0.092 0.208 0.146 0.307 0.042 0.074 0.088 0.145 0.136 0.216 0.065 0.1 0.132 0.199 0.209 0.292 0.048 0.059 0.104 0.114 0.156 0.17 0.089 0.095 0.179 0.19 0.28 0.278 0.048 0.042 0.103 0.079 0.153 0.118 0.119 0.093 0.238 0.185 0.37 0.268 0.03 0.019 0.065 0.034 0.096 0.053 0.711 0.421 1.604 0.702 2.651 0.824 0.005 0 0.01 0.002 0.015 0.002l0 0c0.333 0.038 0.676 0.064 1.038 0.071 0.055 0.268 0.122 0.521 0.195 0.765 2.503 0.17 4.321-0.324 5.588-1.262C38.826 96.513 37.753 93.917 35 93c-0.066-0.022-0.114-0.053-0.175-0.078 1.14-1.365 2.434-2.966 1.869-5.297C37.117 87.366 37.558 87.147 38 87c-0.526 0-1.051-0.064-1.561-0.171 -0.008-0.021-0.014-0.041-0.022-0.062 -0.649-1.574-2.054-2.709-3.728-3.014 -0.34-0.062-0.594-0.134-0.78-0.2 0.814-1.526 7.467-5.587 5.172-9.072C37.076 74.321 37.054 74.161 37 74c-0.469-1.406-2.256-1.717-4.125-2.265 -1.273-0.643-1.9-1.217-2.112-1.498 0.835-2.016 4.208-2.979 3.613-6.836 -0.023-0.151-0.061-0.283-0.093-0.421C35.064 61.762 35.654 60.383 36 59c-2.654 0-5.738-0.886-6.935-2.648 0.671-2.583 4.604-5.38 5.379-8.358C35.933 47.333 37.533 46.733 39 46c-2.268 0-5.672-2.285-5.907-4.265 1.794-0.933 4.501-2.122 5.292-4.294C39.51 36.902 40.654 36.449 42 36c-1.533-1.533-4.232-3.065-4.512-4.147 0.002-0.164 0.015-0.319 0.049-0.459C37.62 31.25 37.765 31.117 38 31c0.601-0.501 1.139-0.953 1.643-1.384 1.969-0.763 4.708-1.311 5.634-4.029 0.562-1.646 0.227-3.465-0.883-4.804 -0.038-0.045-0.067-0.086-0.103-0.131C44.239 19.868 44.143 19 44 18c0-0.108 0.028-0.203 0.046-0.303 1.513-0.886 5.085-0.883 6.688-2.587C52.493 15.002 54.354 15 56 15c-2.998-2.248-3.187-6.181-1.41-8.432 2.518-0.036 5.943 1.124 8.015-0.858 0.85 0.217 1.684 0.465 2.475 0.783C64.712 5.458 65 4.084 65 3c0.618-0.618 1.411-1.101 2.289-1.455 0.968 0.286 2.057 0.732 3.226 0.732 1.549 0 2.476-0.408 3.107-0.984C75.083 1.771 76.327 2.654 77 4c-1-3 0.763-5.015 2-6 0.086-0.069 0.169-0.131 0.254-0.197 0.179 0.045 0.364 0.096 0.56 0.155 6.004 1.811 2.094-4.704 11.569-0.169 2.221 1.062 3.684 0.428 4.853-0.393 2.464 0.842 5.023 1.989 4.691 2.624 1.099-0.776 2.167-1.444 3.223-1.97 1.854 1.007 3.764 1.597 6.002-0.323 0.294-0.252 0.583-0.46 0.869-0.645 1.061 0.28 2.146 0.77 3.276 1.523 0.594 1.188 2.477 3.767 1.296 4.536 1.856-0.819 3.612-1.951 5.392-2.728 1.276 1.018 2.52 1.82 3.775 1.82 1.223 0 2.636-0.728 4.158-1.078C129.521 1.527 130 2.024 130 3c0 0.945-0.231 1.659-0.678 2.157 2.01-0.653 3.993-1.064 5.887-1.042 0.202 0.302 0.404 0.622 0.606 0.979 1.647 2.906 3.893 2.402 5.541 2.454 0.046 1.747-0.923 3.8-3.209 4.319 2.041-0.107 4.381 0.482 6.373 1.589 0.593 0.818 1.423 1.442 2.398 1.783 1.505 1.5 2.41 3.42 2.092 5.625 0.928-0.192 1.892-0.23 2.989 0.136 2 2 5 7 1 9 5-1 13 2 9 8 0 0-2 1-3 2 2.843 0 5.671 0.522 7.796 1.891 1.167 1.209 1.636 3.042-0.778 7.375 -0.452 0.81-0.688 1.509-0.768 2.131C164.261 51.777 163.16 52 162 52c1.239 0 2.303 0.176 3.271 0.447 0.374 2.064 2.676 3.243 4.129 5.238 -0.965 1.202-2.816 2.259-4.399 3.314 2.108 0.327 3.335 2.419 3.607 4.834 -0.124 0.531-0.136 1.1 0.03 1.726 -0.155 2.112-1.008 4.218-2.638 5.44 -0.3 0-0.528 0-0.566 0 1.001 0.317 1.839 0.995 2.321 1.773 -0.568 0.78-1.27 1.53-2.125 2.162 -2.992 2.21-2.23 4.737-1.201 6.494 -0.315-0.025-0.654-0.061-1.049-0.117 0.066 0 0.831-1.633 1.613-1.009 0.339 0.482 0.64 0.861 0.766 1.083 -0.158 0.386 0.498 1.692-2.447 4.122 -2.049 1.69-1.842 4.799-0.19 6.88 0.944 1.19 1.349 2.315 1.445 3.341 -0.477 2.259-1.398 4.345-2.536 5.492 0.165 0 0.327-0.022 0.49-0.039 0.126 0.266 1.102 0.021 2.154-0.721 1.038-0.628 1.877-1.619 2.333-2.884 0.802-1.969 0.696-4.71-1.882-8.206 7.336-6.051 6.458-7.235 3.475-10.415C173.953 77.003 176.071 69.558 173.59 66.428z" id="SvgjsPath1535"/>
    <path opacity="1" stroke-width="none" fill="#000000" data-stroketype="none" data-filltype="sd3" data-colored="true" d="M174.299 66.416c3.293-3.392 1.876-11.575-3.25-14.88 1.12-2.01 2.44-4.31 2.62-6.62 0.191-2.535-1.812-6.772-4.58-8.11 2.549-6.915-1.351-11.307-6.09-12.18 2.412-7.708-6.373-14.135-13.939-14.56 0-5.233-2.849-8.217-8.61-7.95 -3.271-5.763-8.628-8.322-15.55-5.48 -6.263-7.151-13.772-6.987-18.03-3.34 -4.078-2.933-9.855-4.615-13.45-0.63 -4.297-2.055-9.469-3.629-12.34-0.07 -2.803-0.845-9.092-1.229-10.88 4.05 -5.332-1.761-9.714-0.724-11.41 4.74 -7.848-1.643-13.989 2.354-12.42 9.96 -7.782 0.308-10.638 7.607-6.73 12.32 -4.588 1.033-9.819 5.691-6.82 12.02 -6.342 2.346-9.419 7.351-4.14 11.74 -4.602 4.192-8.915 13.07-0.17 16.88 -5.861 5.104-3.096 10.314 2.3 12.57 -5.79 3.619-6.346 10.97 0.13 12.15 -2.858 4.098-1.602 8.805 4.17 8.9 1.995 9.712 16.81 4.148 12.39-7.41v-0.01c3.433-1.22 5.983-7.964 2.54-13.4 2.995-4.138 1.749-5.778-0.39-10.94 4.537-1.58 5.66-5.331 4.24-9.24 6.073 0.623 10.812-1.999 12.96-5.84 4.749 0.733 8.072-1.908 9.53-6.04 5.768 1.377 10.458-1.623 11.55-6.19 3.305 0.621 5.926-0.446 7.43-3.7 2.279 1.258 4.956 1.851 7.39 1.04 3.477 3.271 7.086 3.713 10.67 2.2 1.332 2.827 4.07 3.576 7.2 3.09 1.018 3.134 5.415 5.06 9.46 4.91 0.441 5.225 4.121 8.416 8.25 8.93 -1.039 7.4 0.329 12.072 8.07 12.44 -2.208 7.042-1.61 8.265 2.319 12.19 -1.379 4.964-0.396 7.617 2.971 11.67 -7.787 12.375 2.62 19.174 7.68 11.5 6.18 2.762 11.669-4.593 6.44-11.67 4.317-3.566 7.809-5.878 3.54-10.43C174.24 77.414 176.76 69.558 174.299 66.416zM168.6 80.305c-1-0.87-2.221-1.56-3.4-1.74 0.59 0.095 2.724 1.762 3.7 3.62 2.193 3.788-2.641 8.104-3.641 8.58 -0.63-0.72-1.399-1.32-2.27-1.71 4.498 1.989 4.397 15.001-3.12 13.23 1.866-3.573 1.295-7.331 1.295-7.331s0.289-0.26-1.816 5.105c-3.267 8.313-12.995 4.456-7.328-8.034 0.451-1.005 1.216-2.309 2.31-2.44 -0.68 0.02-1.27 0.4-1.78 0.93 -4.503-7.609-3.564-11.15-1.56-15.6 -0.79 1.24-1.45 2.58-1.93 3.97 -4.906-4.514-1.425-13.327-0.33-16.7 -0.7 1.4-1.41 2.94-1.99 4.54 -9.358-0.954-9.139-14.536-6.12-15.1 -1.2-0.15-1.8 1.13-2.11 2.63 -3.972-1.242-9.11-5.575-7.75-14.05 -0.439 1.52-0.72 3.17-0.739 4.82 -3.147-0.441-8.19-1.053-9.051-4.32l0.311-3.92c-0.62 1.28-1.03 2.64-0.83 3.96 -8.767 0.467-7.61-8.084-6.51-9.93 -0.899 1.236-1.521 4.139-1 6.17 -5.244 1.009-7.273 0.052-9.391-1.11 3.052-1.383 5.58-5.213 6-7.56 -0.153 0.813-2.374 3.287-3.01 3.86 -1.835 1.646-3.758 2.042-5.18 2.48h-0.01c-1.831 0.58-3.86 0.32-5.661-0.3 0.656-1.524 0.784-4.702 0.62-5.04 0.227 1.095-1.416 8.48-8.2 8.48 0.14-1.33-0.08-2.69-0.74-3.95 2.076 5.417-4.969 11.143-10.82 10.68 0.572-1.61 1.061-5.427 1-5.67 0.173 1-3.134 11.186-10.24 11.28 0.41-1.03 0.59-2.17 0.44-3.4 0.453 3.618-5.418 9.59-14.1 9.59 -0.57-1.32-1.42-2.53-2.39-3.5 2.111 3.032 2.345 6.896 1.96 7.3 0 1.958-2.408 3.82-4.16 4.77 -0.83-1.67-1.88-3.24-3.04-4.58 2.176 3.245 6.751 10.324 3.61 16.18 -0.882-1.159-1.674-2.069-4.591-3.262 6 2.454 7.52 14.298 2.142 16.592 -0.813-1.504-2.588-3.028-2.588-3.028s1.437 1.745 1.908 3.979c0.512 1 0.633 5.174-1.87 8.39 -1.934 2.5-6.979 3.894-8.85-1.25 1.71-0.09 3.43-0.58 4.63-1.27 -1.479 0.748-9.968 1.232-9.34-4.28 0.301-3.081 2.626-6.51 5.77-6.51 -1.84-0.27-3.73 0.71-5.13 2.22 -7.167-2.636-2.441-10.856 4.77-13.85 -1 0.269-2.281 0.543-4.55 1.91 -8.558-4.525-1.959-13.669 1.67-14.3 -1.56 0.14-2.99 0.84-4.25 1.78 -8.094-4.805-1.063-18.69 4.81-17.8 -1.85-0.58-3.42 0-4.79 1.04 -5.861-5.887 4.912-12.546 8.54-11.51 -1.31-0.48-2.69-0.38-4.02-0.01 -0.86-3.383 0.16-11.205 11.24-11.75 -1.45-0.15-2.93-0.27-4.37-0.1 -3.506-6.863 2.523-13.311 11.41-11.15 -1.44-0.57-3.04-0.92-4.63-0.99 0-12.784 15.759-8.419 16.88-8.29 -1.48-0.5-3.02-1.02-4.57-1.42 3.495-6.831 14.659-4.202 15.91-0.45 -0.41-1.85-2.07-3.05-3.77-3.83 3.366-5.466 11.211-4.896 12.29-1.93 -0.19-0.78-0.62-1.38-1.18-1.83 2.964-2.01 12.098-1.161 13.67 2.6 -0.3-1.23-1.08-2.13-2.07-2.8 1.896-1.267 6.499-1.938 11.55 0.48 -1.103 1.13-1.61 2.212-2.47 3.47 1.06-1.12 2.04-2.23 3.21-3.08 1.07 0.64 1.91 1.54 2.25 2.89 -0.132-1-0.128-1.918-1.66-3.28 4.873-3.02 10.861 0.167 15.53 3.56 -1.141 0.54-2.28 1.07-3.44 1.49 6.318-1.098 10.604-4.965 18.681 3.39 -1.721 0.24-3.431 0.62-4.98 0.84 0.387 0.02 7.437-0.082 7.69 0.16 3.846 0.547 5.627 3.225 6.579 6.81 -1.229 0.17-2.289 0.73-2.84 1.96 2.756-4.704 17.408 3.675 16.391 12.35 -1.83-0.02-3.63 0.46-5.24 1.47 6.482-2.601 13.192 1.838 11.71 10.49 -0.73-0.06-1.45 0.12-2.11 0.66 2.186-1.81 8.681 2.768 4.641 14 -1.08-0.49-2.25-0.6-3.16 0.28 3.409-3.306 9.756 10.281 6.7 14.58 -1.051-0.86-2.311-1.5-3.7-1.8C175.596 65.811 173.77 75.195 168.6 80.305z" id="SvgjsPath1536"/>
  </g>
</svg>
