<svg preserveAspectRatio="xMinYMin meet" viewBox="0 0 200 200" class="avatar-elements__svg" xmlns:xlink="http://www.w3.org/1999/xlink" version="1.1" xmlns="http://www.w3.org/2000/svg" id="svga-svgcanvas-elements-hair-3">
  <defs id="SvgjsDefs1538"/>
  <g transform="matrix(1,0,0,1,0,20)" id="SvgjsG1539">
    <path opacity="0.1" stroke-width="none" fill="#2a232b" data-stroketype="none" data-filltype="tone" data-colored="true" d="M151.686 97.871c0-11.927-0.214-18.574-3.512-30.116 -1.318-4.613-5.302-8.946-8.959-13.721 -3.451-4.509-6.078-10.609-9.096-16.049 -5.616 3.104-11.944 5.362-20.059 6.589 -4.189 0.633-9.402 1.421-15.795 2.708 -22.479 4.515-44.862 12.433-47.426 30.883 -2.551 14.437-13.806-33.235 53.641-45.936 49.198-9.264 63.93 13.61 60.493 39.159C159.061 85.624 151.686 97.871 151.686 97.871z" id="SvgjsPath1542"/>
    <path opacity="1" stroke-width="none" fill="#2a232b" data-stroketype="none" data-filltype="tone" data-colored="true" d="M151.417 100.722c2.836-14.29 3.792-26.049-0.761-36.989 -1.874-4.503-5.385-9.09-9.102-13.947 -3.507-4.582-7.132-9.319-10.193-14.848 -5.702 3.156-11.177 3.985-19.42 5.232 -4.256 0.644-9.551 1.445-16.048 2.752 -22.833 4.591-44.64 11.3-49.561 29.146 -2.594 14.676 0.425 24.889 0.562 25.339l0.031 0.095 -0.043 0.136 -0.06 0.083h-0.25l-0.059-0.193c-0.084-0.259-0.868-2.604-3.153-7.5 -7.005-15.01-12.961-31.84-2.395-57.841C47.262 16.686 55.446 6.695 67.499-0.208 77.797-6.107 87.54-8.975 97.284-8.975c8.261 0 21.392 3.475 21.588 4.475 8.281 0.491 15.644-0.313 27.202 12.248 8.979 9.761 21.073 33.709 17.583 59.679 -1.943 14.471-7.979 25.874-10.557 30.743 -0.692 1.308-1.193 2.253-1.294 2.643L151.417 100.722z" id="SvgjsPath1543"/>
    <path opacity="1" stroke-width="none" fill="#1b141c" data-stroketype="none" data-filltype="sd1" data-colored="true" d="M163.657 67.426c-1.984 14.777-11.24 32.525-12.24 32.296 2.836-14.29 3.792-25.049-0.761-35.989 -4.134-9.933-16.133-20.627-18.963-28.787 -2.224 1.728-8.598 3.397-19.752 5.224 -4.248 0.696-9.551 1.445-16.048 2.752 -22.833 4.591-44.64 11.3-49.561 29.146 -3.892 22.017 4.976 35.981-2.973 18.959 -7.005-15.01-12.961-33.14-2.395-59.141C47.648 15.432 58.337 0.003 75.085-5.464c2.904-0.948 3.78-0.194 0.897 0.961C61.014 1.515 52.744 15.485 45.689 33.832c0 0 0.304-7.335 3.513-13.843 -7.833 13.622-13.98 27.905-8.879 51.601 -0.951-16.854 7.507-30.616 16.673-37.783 -8.38 11.338-12.324 20.929-12.294 31.598 5.167-13.667 16.371-22.259 31.5-24.667 18.59-2.958 48.883-7.153 56.491-13.126 0.312-0.347 0.653-0.686 1.066-1.008 0 6.396 2.777 9.232 5.24 11.396 13.915 12.229 19 28 18 45 2-17-1-34-10-48 8 8 12 19 14 30 1.22-17.085-3.16-33.417-10.611-48.104 2.134 6.681 2.111 12.406 2.39 12.865 -0.604-1-3.022-28.786-28.181-34.475C150.934-1.238 167.531 38.596 163.657 67.426zM149.595 45.788c-0.771-1.002-10.38-14.231-10.343-22.229C138.123 33.06 142.384 36.429 149.595 45.788zM64.803 31.048c8.477-6.569 14.928-9.919 25.442-12.212 6.227-1.359 15.22-1.644 27.042-4.067 0.04-0.008 0.081-0.019 0.122-0.026 0 0-10.631 3.032-26.412 5.793C80.345 22.399 75.041 24.457 64.803 31.048zM84.513 4.102c19.225-4.631 36.823-3.665 50.436 10.549C126.995 6.347 110.959-0.393 84.513 4.102z" id="SvgjsPath1544"/>
    <path opacity="1" stroke-width="none" fill="#0c080c" data-stroketype="none" data-filltype="sd2" data-colored="true" d="M49.353 54.83c6.177-10.488 12.681-17.599 24.109-21.923 21.07-7.974 37.013-3.576 60.369-11.915 -4.557 1.627-7.094 4.249-33.97 7.959 -17.238 2.382-25.38 4.37-31.725 7.597C59.112 41.139 54.101 47.572 49.353 54.83zM102.038 5.505c-0.013 0.002-0.087 0.005-0.09 0.005 -7.204 0.476-33.15-0.68-52.604 29.249C66.716 12.814 83.166 9.125 102.038 5.505z" id="SvgjsPath1545"/>
    <path opacity="1" stroke-width="none" fill="#3a353a" data-stroketype="none" data-filltype="hl1" data-colored="true" d="M51.695 46.43c10.477-13.847 18.136-17.225 29.399-18.928C66.793 29.664 51.695 45.36 51.695 46.43 52.058 45.951 51.695 46.43 51.695 46.43zM67.385 8.454C51.056 18.625 47.031 32.039 46.892 33.039 49.467 26.4 59.661 13.267 67.385 8.454zM157.313 77.406c-0.259-9.621 0.057-23.952-14.679-35.755C154.329 52.545 155.494 65.235 157.313 77.406zM57.213 33.421c-0.637 0.263-5.713 5.016-6.229 5.533 -9.832 9.842-11.415 18.801-10.542 32.632C40.237 45.783 56.213 33.833 57.213 33.421zM141.658 19.382c7.828 10.565 12.673 21.56 15.459 29.502 -2.193-5.436-5.308-10.323-10.242-14.787 6.684 7.154 13.271 23.233 13.731 28.865C160.524 61.956 161.244 40.477 141.658 19.382zM100.645 37.108c25.392-4.578 25.475-6.359 33.177-10.399 -8.732 4.581-10.754 5.984-33.37 9.444 -25.869 3.957-47.642 6.37-54.768 27.178C53.682 42.119 75.816 41.586 100.645 37.108z" id="SvgjsPath1546"/>
    <path opacity="1" stroke-width="none" fill="#000000" data-stroketype="none" data-filltype="sd3" data-colored="true" d="M151.28 11.084c-7.513-9.719-18.752-17.241-30.852-15.839C89.597-19.604 53.174-3.752 38.345 33.664 25.039 67.235 46.132 101.756 47.706 101c2.401-1.154-4.167-18.054 1.153-30.882 5.416-13.059 25.43-19.579 45.658-24.673 19.117-4.815 27.417-4.69 36.338-9.523 0.003-0.001 0.005-0.003 0.008-0.005 6.412 12.427 14.565 20.061 18.671 31.197 4.276 11.604-0.18 34.874 0.916 35.321 2.902 1.185 11.388-19.541 13.871-30.778C169.387 48.739 163.207 26.516 151.28 11.084zM163.459 67.399c-2.461 18.324-11.344 30.421-11.846 32.362 2.592-13.059 4.02-24.59-0.772-36.105 -3.604-8.663-12.96-17.276-19.401-28.991 -8.695 4.882-16.492 4.22-35.586 8.06C75.84 46.75 51.348 53.125 46.139 72.015c-3.956 22.372 3.399 31.39-2.599 18.928 -4.586-9.527-12.923-32.762-2.391-58.681C46.815 18.316 54.489 7.473 67.599-0.035c19.982-11.446 35.868-10.229 50.924-4.437 1.509-0.282-8.718 2.916-13.15 3.695 6.495 3.255 19.759-13.941 40.555 8.659C155.79 18.604 166.764 42.811 163.459 67.399z" id="SvgjsPath1547"/>
  </g>
</svg>
