<svg id="svga-svgcanvas-elements-hair-0" xmlns="http://www.w3.org/2000/svg" version="1.1" xmlns:xlink="http://www.w3.org/1999/xlink" xmlns:svgjs="http://svgjs.com/svgjs" class="avatar-elements__svg" viewBox="0 0 200 200" preserveAspectRatio="xMinYMin meet"><defs id="SvgjsDefs1521"></defs><g id="SvgjsG1522" transform="matrix(1,0,0,1,0,0.001007080078125)"><path id="SvgjsPath1523" d="M100.5,100.5h-1v-1h1V100.5z" data-colored="true" data-fillType="tone" data-strokeType="none" fill="#2a232b" stroke-width="none" opacity="1"></path><path id="SvgjsPath1525" d="M115.242,77.274l7.483,7.48c0.559,0.553,0.559,1.46,0,2.016l-13.231,13.229l13.231,13.227c0.559,0.562,0.559,1.461,0,2.013l-7.483,7.485c-0.556,0.557-1.455,0.557-2.015,0l-13.227-13.23l-13.231,13.23c-0.559,0.557-1.459,0.557-2.015,0l-7.479-7.479c-0.557-0.558-0.557-1.457,0-2.019l13.231-13.227L77.276,86.77c-0.557-0.556-0.557-1.463,0-2.016l7.479-7.48c0.555-0.556,1.456-0.556,2.015,0l13.231,13.233l13.227-13.233C113.787,76.718,114.687,76.718,115.242,77.274z M154,99.999c0,29.825-24.172,54-53.999,54c-29.821,0-54.001-24.175-54.001-54c0-29.826,24.18-54,54.001-54C129.828,45.999,154,70.173,154,99.999z M142.428,99.999c0-23.435-18.992-42.429-42.427-42.429c-23.43,0-42.43,18.994-42.43,42.429c0,23.433,19,42.427,42.43,42.427C123.436,142.426,142.428,123.432,142.428,99.999z" data-colored="true" data-fillType="tone" data-strokeType="none" fill="#2a232b" stroke-width="none" opacity="1"></path></g></svg>