<svg preserveAspectRatio="xMinYMin meet" viewBox="0 0 200 200" class="avatar-elements__svg" xmlns:xlink="http://www.w3.org/1999/xlink" version="1.1" xmlns="http://www.w3.org/2000/svg" id="svga-svgcanvas-elements-eyesfront-0"><defs id="SvgjsDefs1849"><radialGradient gradientUnits="userSpaceOnUse" gradientTransform="matrix(0.9945 0.1042 -0.1042 0.9945 7.1735 -12.4637)" r="15.117" cy="85.956" cx="129.049" id="svga-eyesfront-gradient-right-0-0"><stop data-stoptype="#ffffff" offset="0" stop-color="#ffffff" stop-opacity="1" id="SvgjsStop1853"></stop><stop data-stoptype="#fcfdfd" offset="0.316" stop-color="#fcfdfd" stop-opacity="1" id="SvgjsStop1854"></stop><stop data-stoptype="#f4f7f8" offset="0.505" stop-color="#f4f7f8" stop-opacity="1" id="SvgjsStop1855"></stop><stop data-stoptype="#e5ecef" offset="0.661" stop-color="#e5ecef" stop-opacity="1" id="SvgjsStop1856"></stop><stop data-stoptype="#d8e2e7" offset="0.76" stop-color="#d8e2e7" stop-opacity="1" id="SvgjsStop1857"></stop></radialGradient><radialGradient gradientUnits="userSpaceOnUse" gradientTransform="matrix(-0.9998 0.0208 -0.0166 -0.7998 244.9525 149.5433)" r="16.003" fy="84.527" fx="133.039" cy="84.496" cx="121.786" id="svga-eyesfront-gradient-right-0-3"><stop data-stoptype="sd1" offset="0" stop-color="#e4b3ab" stop-opacity="1" id="SvgjsStop1862"></stop><stop data-stoptype="sd1" offset="0.7" stop-color="#e4b3ab" stop-opacity="0.3" id="SvgjsStop1863"></stop><stop data-stoptype="tone" offset="1" stop-color="#f3d4cf" stop-opacity="0" id="SvgjsStop1864"></stop></radialGradient><radialGradient gradientUnits="userSpaceOnUse" gradientTransform="matrix(-1.0336 0 0 1.0336 201.6792 1.7282)" r="29.525" cy="107.529" cx="69.124" id="svga-eyesfront-gradient-right-0-4"><stop data-stoptype="#000000" offset="0.95" stop-color="#000000" stop-opacity="0" id="SvgjsStop1867"></stop><stop data-stoptype="#000000" offset="1" stop-color="#000000" stop-opacity="0.3" id="SvgjsStop1868"></stop></radialGradient></defs><g transform="matrix(3,0,0,3,-285.0170021057129,-155.0552635192871)" id="SvgjsG1850"><path opacity="1" fill="url(#svga-eyesfront-gradient-right-0-0)" data-stroketype="none" data-filltype="gradient" data-colored="false" d="M138.048 84.523c0.506-2.285-5.191-3.973-12.711-3.051 -7.518 0.923-12.738 5.524-12.052 7.844 0.38 1.286 10.639 3.245 14.253 2.847C131.202 91.758 136.826 90.04 138.048 84.523z" id="SvgjsPath1851"></path><path opacity="1" stroke-width="none" fill="#0b1718" data-stroketype="none" data-filltype="#0b1718" data-colored="false" d="M117.502 85.999c0 2.111 0.818 4.031 2.153 5.461 0 0 9.507 2.17 11.472 0.228 1.467-1.45 2.375-3.463 2.375-5.689 0-2.354-1.017-4.47-2.635-5.934 -1.419-1.284-12.428 2.173-12.428 2.173C117.841 83.359 117.502 84.639 117.502 85.999z" id="SvgjsPath1858"></path><path opacity="1" fill="url(#svga-eyesfront-gradient-right-0-4)" data-stroketype="none" data-filltype="gradient" data-colored="false" d="M138.048 84.523c0.506-2.285-5.191-3.973-12.711-3.051 -7.518 0.923-12.738 5.524-12.052 7.844 0.38 1.286 10.639 3.245 14.253 2.847C131.202 91.758 136.826 90.04 138.048 84.523z" id="SvgjsPath1865"></path><path opacity="1" stroke-width="none" fill="#c5796d" data-fromskin="true" data-stroketype="none" data-filltype="sd3" data-colored="true" d="M137.651 79.417c-4.208-1.978-9.35-2.16-13.838-1.005 -2.404 0.561-4.965 1.285-7.063 2.638 -1.945 1.135-3.525 2.5-5.002 4.19 1.342-1.701 2.773-3.118 4.623-4.27 2.276-1.416 4.769-2.294 7.364-2.916C128.322 76.928 133.458 77.184 137.651 79.417z" id="SvgjsPath1869"></path><path opacity="1" stroke-width="none" fill="#000000" data-stroketype="none" data-filltype="tone" data-colored="true" d="M142.682 80.972c0 0-2.328 0.881-3.595 0.62 0.39-0.459 1.096-1.604 1.096-1.604s-1.853 0.551-3.151 0.032c-0.88-0.352-4.065-1-5.456-1.066 -1.687-0.082-5.073 0.125-6.735 0.424 -3.374 0.608-8.985 2.63-11.678 7.184 -0.255 0.572-1.407 0.921-1.407 0.921s1.02-0.215 1.149 0.042c0.282 0.561-1.298 2.016-1.496 2.197 0.161-0.145 1.289-1.135 1.722-0.967 0.061 0.022 0.137 0.388 0.155 0.482 -0.3-2.426 4.838-6.746 12.052-7.604 7.52-0.894 13.217 0.743 12.711 2.958 -1.222 5.348-6.846 7.013-10.51 7.405 -2.526 0.271-8.298-0.577-11.675-1.537l-1.011-0.317c1.999 1.009 7.524 2.195 9.767 2.403 0.744 0.07 2.24 0.104 2.986 0.085 5.949-0.158 10.16-3.179 11.729-7.26 0.125-0.328 0.494-0.619 0.838-0.696 1.604-0.361 5.096-1.811 5.096-1.811 -2.32 0.361-3.483 0.674-5.305 0.059C141.743 82.256 142.682 80.972 142.682 80.972z" id="SvgjsPath1870"></path></g></svg>