<svg id="svga-svgcanvas-elements-eyesfront-1" xmlns="http://www.w3.org/2000/svg" version="1.1" xmlns:xlink="http://www.w3.org/1999/xlink" xmlns:svgjs="http://svgjs.com/svgjs" class="avatar-elements__svg" viewBox="0 0 200 200" preserveAspectRatio="xMinYMin meet"><defs id="SvgjsDefs1872"><radialGradient id="svga-eyesfront-gradient-right-1-0" cx="126.401" cy="87.57" r="15.179" gradientTransform="matrix(0.9148 0.0479 -0.0523 0.9986 15.5691 -6.6017)" gradientUnits="userSpaceOnUse"><stop id="SvgjsStop1876" stop-opacity="1" stop-color="#ffffff" offset="0" data-stoptype="#ffffff"></stop><stop id="SvgjsStop1877" stop-opacity="1" stop-color="#fdfefe" offset="0.544" data-stoptype="#fdfefe"></stop><stop id="SvgjsStop1878" stop-opacity="1" stop-color="#f6f8f9" offset="0.74" data-stoptype="#f6f8f9"></stop><stop id="SvgjsStop1879" stop-opacity="1" stop-color="#eaeff2" offset="0.879" data-stoptype="#eaeff2"></stop><stop id="SvgjsStop1880" stop-opacity="1" stop-color="#d9e3e8" offset="0.992" data-stoptype="#d9e3e8"></stop><stop id="SvgjsStop1881" stop-opacity="1" stop-color="#d8e2e7" offset="1" data-stoptype="#d8e2e7"></stop></radialGradient><radialGradient id="svga-eyesfront-gradient-right-1-3" cx="122.581" cy="83.48" fx="136.229" fy="83.114" r="16.914" gradientTransform="matrix(-0.99 0.1411 -0.1085 -0.7608 252.9892 129.6892)" gradientUnits="userSpaceOnUse"><stop id="SvgjsStop1886" stop-opacity="1" stop-color="#e4b3ab" offset="0" data-stoptype="sd1"></stop><stop id="SvgjsStop1887" stop-opacity="0.3" stop-color="#e4b3ab" offset="0.7" data-stoptype="sd1"></stop><stop id="SvgjsStop1888" stop-opacity="0" stop-color="#f3d4cf" offset="1" data-stoptype="tone"></stop></radialGradient><radialGradient id="svga-eyesfront-gradient-right-1-4" cx="70.243" cy="108.081" r="29.509" gradientTransform="matrix(-1.0336 0 0 1.0336 201.941 1.8777)" gradientUnits="userSpaceOnUse"><stop id="SvgjsStop1891" stop-opacity="0" stop-color="#000000" offset="0.95" data-stoptype="#000000"></stop><stop id="SvgjsStop1892" stop-opacity="0.3" stop-color="#000000" offset="1" data-stoptype="#000000"></stop></radialGradient></defs><g id="SvgjsG1873" transform="matrix(3,0,0,3,-280.91748046875,-154.54929733276367)"><path id="SvgjsPath1874" d="M139.368 83.957c-1.226-1.179-9.091-2.674-13.631-2.075 -7.183 0.947-13 7.285-13 7.285s4.836 3.083 13.61 3.56C132.127 93.042 137.939 89.309 139.368 83.957z" data-colored="false" data-fillType="gradient" data-strokeType="none" fill="url(#svga-eyesfront-gradient-right-1-0)" opacity="1"></path><path id="SvgjsPath1882" d="M133.378 87.44c0.114-2.177-0.78-4.173-2.274-5.537 -1.912-0.184-3.829-0.225-5.366-0.021 -1.938 0.255-3.77 0.909-5.421 1.718 -0.528 0.922-0.859 1.974-0.918 3.108 -0.112 2.142 0.751 4.106 2.199 5.468 1.426 0.256 3.007 0.456 4.75 0.55 1.702 0.093 3.404-0.174 5-0.722C132.521 90.827 133.285 89.233 133.378 87.44z" data-colored="false" data-fillType="#0b1718" data-strokeType="none" fill="#0b1718" stroke-width="none" opacity="1"></path><path id="SvgjsPath1889" d="M139.368 83.957c-1.226-1.179-9.091-2.674-13.631-2.075 -7.183 0.947-13 7.285-13 7.285s4.836 3.083 13.61 3.56C132.127 93.042 137.939 89.309 139.368 83.957z" data-colored="false" data-fillType="gradient" data-strokeType="none" fill="url(#svga-eyesfront-gradient-right-1-4)" opacity="1"></path><path id="SvgjsPath1893" d="M112.567 83.657c6.502-4.251 4.054-3.09 16.23-6.703 -3.344 0.5-9.572 2.066-11.707 3.32C115.927 80.928 113.567 82.783 112.567 83.657z" data-colored="true" data-fillType="sd3" data-strokeType="none" data-fromskin="true" fill="#c5796d" stroke-width="none" opacity="1"></path><path id="SvgjsPath1894" d="M140.17 82.871c1.761-1.139 2.628-1.965 2.628-1.965s-3.434 1.009-5.312 0.867c1.815-0.612 2.646-1.55 3.004-1.852 -0.427 0.321-2.619 1.531-10.669 0.435 1.75-0.681 6.399-1.769 6.399-1.769 -13.909 0.712-22.589 6.056-23.826 7.508 0 0 3.315-1.844 5.783-2.315 -5.405 2.926-4.993 3.854-8.891 5.423 4.964 0.551 4.778 1.325 7.773 2.07 6.116 1.537 12.523 2.511 18.014-0.643 3.632-2.085 5.744-5.579 5.873-6.344 1.629-0.001 3.713-1.307 3.713-1.307S141.677 83.595 140.17 82.871zM126.348 92.533c-8.774-0.459-13.61-3.434-13.61-3.434s5.817-6.113 13-7.026c4.54-0.579 12.405 0.864 13.631 2.001C137.939 89.236 132.127 92.836 126.348 92.533z" data-colored="true" data-fillType="tone" data-strokeType="none" fill="#000000" stroke-width="none" opacity="1"></path></g></svg>