<svg preserveAspectRatio="xMinYMin meet" viewBox="0 0 200 200" class="avatar-elements__svg" xmlns:xlink="http://www.w3.org/1999/xlink" version="1.1" xmlns="http://www.w3.org/2000/svg" id="svga-svgcanvas-elements-eyesfront-8"><defs id="SvgjsDefs2040"><radialGradient gradientUnits="userSpaceOnUse" gradientTransform="matrix(1.0172 0 0 1.0172 -2.565 -1.469)" r="13.737" cy="86.829" cx="126.443" id="svga-eyesfront-gradient-right-8-0"><stop data-stoptype="#ffffff" offset="0" stop-color="#ffffff" stop-opacity="1" id="SvgjsStop2044"></stop><stop data-stoptype="#fdfefe" offset="0.544" stop-color="#fdfefe" stop-opacity="1" id="SvgjsStop2045"></stop><stop data-stoptype="#f6f8f9" offset="0.74" stop-color="#f6f8f9" stop-opacity="1" id="SvgjsStop2046"></stop><stop data-stoptype="#eaeff2" offset="0.879" stop-color="#eaeff2" stop-opacity="1" id="SvgjsStop2047"></stop><stop data-stoptype="#d9e3e8" offset="0.992" stop-color="#d9e3e8" stop-opacity="1" id="SvgjsStop2048"></stop><stop data-stoptype="#d8e2e7" offset="1" stop-color="#d8e2e7" stop-opacity="1" id="SvgjsStop2049"></stop></radialGradient><radialGradient gradientUnits="userSpaceOnUse" gradientTransform="matrix(-0.9998 0.0208 -0.0166 -0.7998 247.2259 151.2362)" r="17.105" fy="85.483" fx="134.942" cy="85.449" cx="122.915" id="svga-eyesfront-gradient-right-8-3"><stop data-stoptype="sd1" offset="0" stop-color="#e4b3ab" stop-opacity="1" id="SvgjsStop2054"></stop><stop data-stoptype="sd1" offset="0.7" stop-color="#e4b3ab" stop-opacity="0.3" id="SvgjsStop2055"></stop><stop data-stoptype="tone" offset="1" stop-color="#f3d4cf" stop-opacity="0" id="SvgjsStop2056"></stop></radialGradient><radialGradient gradientUnits="userSpaceOnUse" gradientTransform="matrix(-0.875 -0.0456 -0.0459 0.8698 197.1092 16.3064)" r="29.944" cy="108.958" cx="74.869" id="svga-eyesfront-gradient-right-8-4"><stop data-stoptype="#000000" offset="0.95" stop-color="#000000" stop-opacity="0" id="SvgjsStop2059"></stop><stop data-stoptype="#000000" offset="1" stop-color="#000000" stop-opacity="0.3" id="SvgjsStop2060"></stop></radialGradient></defs><g transform="matrix(3,0,0,3,-285.59899139404297,-162.20695114135742)" id="SvgjsG2041"><path opacity="1" fill="url(#svga-eyesfront-gradient-right-8-0)" data-stroketype="none" data-filltype="gradient" data-colored="false" d="M112.594 85c0 0-0.229 1.408-0.229 2.353 0 0.804 0.079 1.592 0.223 2.361 0.002-0.018 0.004-0.032 0.006-0.049l1.239 3.592c12.532 2.012 19.052 1.868 20.346 0 2.511-3.626 3.766-5.613 4.094-11.03C131.512 82.668 119.789 74.726 112.594 85z" id="SvgjsPath2042"></path><path opacity="1" stroke-width="none" fill="#0b1718" data-stroketype="none" data-filltype="#0b1718" data-colored="false" d="M133.155 86.107c0-1.81-0.549-3.491-1.487-4.89 -4.615-1.137-9.868-2.534-14.387-0.354 -1.094 1.466-1.748 3.276-1.748 5.244 0 3.677 2.261 6.825 5.471 8.139 2.009 0.224 3.782 0.365 5.327 0.426C130.238 93.771 133.155 90.281 133.155 86.107z" id="SvgjsPath2050"></path><path opacity="1" fill="url(#svga-eyesfront-gradient-right-8-4)" data-stroketype="none" data-filltype="gradient" data-colored="false" d="M134.179 93.256c2.511-3.626 3.766-5.613 4.094-11.03 -6.761 0.441-18.483-7.501-25.679 2.773 0 0-0.229 1.408-0.229 2.353 0 0.804 0.079 1.592 0.223 2.361 0.002-0.018 0.004-0.032 0.006-0.049l1.239 3.592C126.365 95.269 132.885 95.125 134.179 93.256z" id="SvgjsPath2057"></path><path opacity="1" stroke-width="none" fill="#c5796d" data-fromskin="true" data-stroketype="none" data-filltype="sd3" data-colored="true" d="M113.824 80c4.563-3.95 15.813-3.363 19.433-2.761C128.665 77.017 120.74 76.121 113.824 80z" id="SvgjsPath2061"></path><path opacity="1" stroke-width="none" fill="#000000" data-stroketype="none" data-filltype="tone" data-colored="true" d="M133.992 80.011c2.064 0.413 6.817-0.817 9.987-2.012 -1.351 0.882-2.35 1.722-3.659 2.26 1.147 0.229 2.911 0 5.146-0.496 -2.832 1.847-4.239 2.518-5.891 2.667 0.087 4.733-2.622 8.9-4.449 11.227l2.278 1.985c-1.233-0.639-2.331-1.083-3.351-1.055 -1.504 0.662-2.649 1.054-4.465 1.489l1.55 1.923c-1.763-0.754-3.144-1.807-5.583-2.357 -4.403-0.993-11.677-1.049-12.431-1.899 -0.684-0.771-0.761-2.298-0.532-4.117l1.041 2.969c0.109 0.313 0.463 0.608 0.79 0.659 12.146 1.883 18.48 1.716 19.754-0.093 2.511-3.568 3.766-5.523 4.094-10.854 -6.761 0.435-18.483-7.381-25.679 2.729l0.352-1.757c0 0.062-1.344 0.662-1.344 0.662C117.264 77.669 122.827 77.778 133.992 80.011z" id="SvgjsPath2062"></path></g></svg>