<svg preserveAspectRatio="xMinYMin meet" viewBox="0 0 200 200" class="avatar-elements__svg" xmlns:xlink="http://www.w3.org/1999/xlink" version="1.1" xmlns="http://www.w3.org/2000/svg" id="svga-svgcanvas-elements-mouth-0"><defs id="SvgjsDefs2541"><linearGradient gradientUnits="userSpaceOnUse" y2="138" x2="100" y1="141" x1="100" id="svga-mouth-gradient-single-0-0"></linearGradient></defs><g transform="matrix(4,0,0,4,-300.0520935058594,-441.3399353027344)" id="SvgjsG2542"><path opacity="1" fill="url(#svga-mouth-gradient-single-0-0)" data-fromskin="true" data-stroketype="none" data-filltype="gradient" data-colored="false" d="M100.002 141.435c-4.158 0-5.133-3.232-5.133-3.232h10.267C105.136 138.202 103.659 141.435 100.002 141.435z" id="SvgjsPath2543"></path><path opacity="1" stroke-width="0.75" stroke="#e85391" fill="#f771a9" data-stroketype="sd1" data-filltype="tone" data-colored="true" d="M87.536 132.96c2.756-0.951 6.239-3.625 8.432-3.723 1.133-0.051 2.351 0.87 3.574 1.166 0.851 0.207 3.264-1.156 4.13-1.166 2.272-0.022 6.326 2.771 8.769 3.723 0.135 0.055 0 0 0 0s-5.056 6.021-12.452 6.021C91.618 138.98 87.536 132.96 87.536 132.96S87.399 133.01 87.536 132.96z" id="SvgjsPath2547"></path><path opacity="1" stroke-width="none" fill="#c92066" data-stroketype="none" data-filltype="sd3" data-colored="true" d="M112.808 132.902c-0.187-0.076-0.606-0.028-0.753-0.021 -0.304 0.016-0.546-0.117-1.214-0.129 -0.742-0.012-3.945-0.268-5.003-0.338 -2.129-0.143-3.824 0.666-5.848 0.666 -2.025 0-3.868-0.883-5.996-0.74 -1.057 0.072-4.113 0.395-4.857 0.412 -0.663 0.019-0.923 0.133-1.231 0.12 -0.143-0.007-0.595-0.05-0.771 0.05 -0.147 0.086-0.09 0.559 0.027 0.683 0.285 0.298 1.397-0.233 1.959-0.22 0.777 0.017 3.843-0.05 4.917-0.121 2.081-0.142 3.936 0.821 5.952 0.821s3.725-0.889 5.806-0.749c1.071 0.072 4.281 0.064 5.06 0.049 0.563-0.014 1.764 0.449 2.052 0.22C113.043 133.495 112.972 132.969 112.808 132.902z" id="SvgjsPath2548"></path></g></svg>