<svg preserveAspectRatio="xMinYMin meet" viewBox="0 0 200 200" class="avatar-elements__svg" xmlns:xlink="http://www.w3.org/1999/xlink" version="1.1" xmlns="http://www.w3.org/2000/svg" id="svga-svgcanvas-elements-mouth-10"><defs id="SvgjsDefs2647"></defs><g transform="matrix(4,0,0,4,-302.0472412109375,-435.4548645019531)" id="SvgjsG2648"><path opacity="1" stroke-width="none" fill="#e4b3ab" data-fromskin="true" data-stroketype="none" data-filltype="sd1" data-colored="true" d="M94.859 136.427c0.259 0.002 11.018-0.099 11.018-0.099s-3.174 0.714-5.865 0.688C97.688 136.997 94.859 136.427 94.859 136.427z" id="SvgjsPath2649"></path><path opacity="1" stroke-width="none" fill="#c5796d" data-fromskin="true" data-stroketype="none" data-filltype="sd3" data-colored="true" d="M86.537 134.998c-0.649-0.642 3.796-2.875 5.987-3.547 2.769-0.882 5.481-0.17 8.3-0.383 2.571-0.195 4.901-0.735 7.421 0.076 2.277 0.733 6.579 3.048 6.292 3.601 -0.289 0.558-4.189-1.703-6.378-2.18 -2.508-0.534-4.781 0.241-7.28 0.488 -2.558 0.254-5.083-0.713-7.64-0.307C90.92 133.114 86.894 135.351 86.537 134.998z" id="SvgjsPath2650"></path></g></svg>