<svg id="svga-svgcanvas-elements-mouth-7" xmlns="http://www.w3.org/2000/svg" version="1.1" xmlns:xlink="http://www.w3.org/1999/xlink" xmlns:svgjs="http://svgjs.com/svgjs" class="avatar-elements__svg" viewBox="0 0 200 200" preserveAspectRatio="xMinYMin meet"><defs id="SvgjsDefs2746"><linearGradient id="svga-mouth-gradient-single-7-0" x1="100" y1="141" x2="100" y2="137" gradientUnits="userSpaceOnUse"><stop id="SvgjsStop2750" stop-opacity="1" stop-color="#e8b9a0" offset="0.1" data-stoptype="sd05"></stop><stop id="SvgjsStop2751" stop-opacity="1" stop-color="#e1ac8f" offset="1" data-stoptype="sd1"></stop></linearGradient></defs><g id="SvgjsG2747" transform="matrix(4,0,0,4,-304.97943115234375,-444.65985107421875)"><path id="SvgjsPath2748" d="M99.983 141.177c-3.24 0-4.753-3.8-4.753-3.8s4.826 0.199 9.279 0.933C104.509 138.31 102.832 141.177 99.983 141.177z" data-colored="false" data-fillType="gradient" data-strokeType="none" data-fromskin="true" fill="url(#svga-mouth-gradient-single-7-0)" opacity="1"></path><path id="SvgjsPath2752" d="M87.792 135.571c-0.373-0.33 1.528-3.373 3.926-4.045 3.031-0.882 5.759 0.026 7.991 0.413 2.034 0.354 5.041 0.049 7.028 0.579 2.249 0.6 8.464 3.283 7.981 3.8 -0.238 0.255-4.963-1.676-8.076-2.278 -1.98-0.384-4.881-0.086-6.874-0.413 -2.062-0.337-4.47-1.21-7.268-0.805C89.962 133.189 88.217 135.947 87.792 135.571z" data-colored="true" data-fillType="sd3" data-strokeType="none" data-fromskin="true" fill="#c27b55" stroke-width="none" opacity="1"></path></g></svg>