<svg id="svga-svgcanvas-elements-mouth-5" xmlns="http://www.w3.org/2000/svg" version="1.1" xmlns:xlink="http://www.w3.org/1999/xlink" xmlns:svgjs="http://svgjs.com/svgjs" class="avatar-elements__svg" viewBox="0 0 200 200" preserveAspectRatio="xMinYMin meet"><defs id="SvgjsDefs2598"><linearGradient id="svga-mouth-gradient-single-5-0" x1="100" y1="141" x2="100" y2="137" gradientUnits="userSpaceOnUse"><stop id="SvgjsStop2602" stop-opacity="1" stop-color="#ebc3bd" offset="0.1" data-stoptype="sd05"></stop><stop id="SvgjsStop2603" stop-opacity="1" stop-color="#e4b3ab" offset="1" data-stoptype="sd1"></stop></linearGradient></defs><g id="SvgjsG2599" transform="matrix(4,0,0,4,-299.318115234375,-437.84812927246094)"><path id="SvgjsPath2600" d="M99.867 141.087c-4.159 0-7.258-4.297-7.258-4.297 7.261 3.32 14.915 0 14.915 0S103.516 141.087 99.867 141.087z" data-colored="false" data-fillType="gradient" data-strokeType="none" data-fromskin="true" fill="url(#svga-mouth-gradient-single-5-0)" opacity="1"></path><path id="SvgjsPath2604" d="M112.127 131.943c0 0.625-7.773 3.456-12.258 3.575 -4.18 0.112-12.333-2.682-12.333-3.575 0-0.892 6.441-1.558 12.729-1.558C106.555 130.386 112.127 131.052 112.127 131.943z" data-colored="false" data-fillType="#ffffff" data-strokeType="none" fill="#ffffff" stroke-width="none" opacity="1"></path><path id="SvgjsPath2605" d="M95.441 127.853c0.99-0.131 2.728 0.908 4.824 0.909 1.541 0.002 3.426-1.067 4.612-0.909 2.529 0.341 3.857 1.882 10.491 2.47 0 0-3.22 1.083-4.075 1.15 -2.72 0.216-7.215-0.169-11.287-0.181 -4.556-0.02-8.941 0.43-11.697 0.301 -0.994-0.051-3.941-1.137-3.941-1.137C89.901 130.196 92.547 128.235 95.441 127.853zM84.369 130.818c0 0 4.514 3.538 6.253 4.76 2.007 1.411 5.029 3.623 9.474 3.557 3.563-0.058 6.641-1.816 8.477-2.986 1.978-1.259 6.796-5.463 6.796-5.463 -2.77 0.633-2.77 0.633-4.075 1.149 -2.741 1.084-7.477 2.722-11.173 2.722 -4.563 0-8.936-1.639-11.811-2.603C86.315 131.286 84.369 130.818 84.369 130.818z" data-colored="true" data-fillType="tone" data-strokeType="sd1" fill="#f771a9" stroke="#e85391" stroke-width="0.75" opacity="1"></path><path id="SvgjsPath2606" d="M115.592 130.572c-0.458 0.663-2.14 0.715-2.888 0.977 -1.098 0.383-2.162 0.856-3.259 1.245 -2.693 0.954-5.51 1.792-8.375 1.98 -5.336 0.351-10.599-1.808-15.596-3.41 -0.424-0.136-0.994-0.175-1.359-0.449 -0.326-0.244-0.015-0.768 0.336-0.701 1.051 0.199 2.092 0.731 3.141 0.994 1.224 0.308 2.583 0.16 3.832 0.113 1.592-0.059 3.184-0.146 4.777-0.207 2.927-0.109 5.842-0.053 8.768 0.059 2.621 0.101 5.366 0.402 7.915-0.332 0.688-0.199 1.379-0.399 2.047-0.656C115.179 130.09 115.94 130.07 115.592 130.572 115.415 130.828 115.632 130.515 115.592 130.572zM108.39 131.773c-3.415 0.013-6.822-0.286-10.24-0.217 -1.874 0.038-3.745 0.139-5.617 0.219 -0.566 0.024-1.625-0.143-2.11 0.204 -0.466 0.334 1.182 0.807 1.325 0.852 3.306 1.039 6.829 1.78 10.304 1.346 1.704-0.214 3.382-0.632 5.023-1.13 0.64-0.195 1.439-0.341 1.987-0.743C109.635 131.883 108.656 131.773 108.39 131.773 107.333 131.777 109.492 131.771 108.39 131.773z" data-colored="true" data-fillType="sd3" data-strokeType="none" fill="#c92066" stroke-width="none" opacity="1"></path><path id="SvgjsPath2607" d="M99.901 138.136c-4.165 0-7.465-2.404-10.634-4.801 7.714 2.61 14.222 2.572 21.819-0.346C107.874 135.609 104.215 138.095 99.901 138.136zM93.601 130.478c5.567-0.262 11.102 0.228 16.657 0.047 -1.847-0.453-3.623-1.426-5.512-1.681 -1.452-0.142-2.984 0.918-4.481 0.918 -1.633-0.001-3.113-0.918-4.692-0.918 -2.024 0.27-3.923 1.229-5.881 1.771C90.996 130.593 92.299 130.547 93.601 130.478 95.469 130.39 92.18 130.543 93.601 130.478z" data-colored="true" data-fillType="hl1" data-strokeType="none" fill="#ff8ebd" stroke-width="none" opacity="1"></path><path id="SvgjsPath2608" d="M95.134 136.031c1.596 0.319 3.265 0.525 4.987 0.525 1.453 0 3.029-0.222 4.598-0.563 -1.384 0.624-2.973 1.132-4.654 1.141C98.283 137.145 96.471 136.67 95.134 136.031z" data-colored="true" data-fillType="hl2" data-strokeType="none" fill="#ffa8cc" stroke-width="none" opacity="1"></path></g></svg>