<svg id="svga-svgcanvas-elements-eyesfront-0" xmlns="http://www.w3.org/2000/svg" version="1.1" xmlns:xlink="http://www.w3.org/1999/xlink" xmlns:svgjs="http://svgjs.com/svgjs" class="avatar-elements__svg" viewBox="0 0 200 200" preserveAspectRatio="xMinYMin meet"><defs id="SvgjsDefs2007"><radialGradient id="svga-eyesfront-gradient-right-0-0" cx="128.643" cy="83.986" r="15.116" gradientTransform="matrix(0.9945 0.1042 -0.1042 0.9945 7.1738 -12.4633)" gradientUnits="userSpaceOnUse"><stop id="SvgjsStop2011" stop-opacity="1" stop-color="#ffffff" offset="0" data-stoptype="#ffffff"></stop><stop id="SvgjsStop2012" stop-opacity="1" stop-color="#fcfdfd" offset="0.316" data-stoptype="#fcfdfd"></stop><stop id="SvgjsStop2013" stop-opacity="1" stop-color="#f4f7f8" offset="0.505" data-stoptype="#f4f7f8"></stop><stop id="SvgjsStop2014" stop-opacity="1" stop-color="#e5ecef" offset="0.661" data-stoptype="#e5ecef"></stop><stop id="SvgjsStop2015" stop-opacity="1" stop-color="#d8e2e7" offset="0.76" data-stoptype="#d8e2e7"></stop></radialGradient><radialGradient id="svga-eyesfront-gradient-right-0-3" cx="121.587" cy="82.496" fx="132.839" fy="82.527" r="16.003" gradientTransform="matrix(-0.9998 0.0208 -0.0166 -0.7998 244.5208 145.9478)" gradientUnits="userSpaceOnUse"><stop id="SvgjsStop2020" stop-opacity="1" stop-color="#e1ac8f" offset="0" data-stoptype="sd1"></stop><stop id="SvgjsStop2021" stop-opacity="0.3" stop-color="#e1ac8f" offset="0.7" data-stoptype="sd1"></stop><stop id="SvgjsStop2022" stop-opacity="0" stop-color="#f0c7b1" offset="1" data-stoptype="tone"></stop></radialGradient><radialGradient id="svga-eyesfront-gradient-right-0-4" cx="69.316" cy="105.995" r="29.524" gradientTransform="matrix(-1.0336 0 0 1.0336 201.6796 1.3127)" gradientUnits="userSpaceOnUse"><stop id="SvgjsStop2025" stop-opacity="0" stop-color="#000000" offset="0.95" data-stoptype="#000000"></stop><stop id="SvgjsStop2026" stop-opacity="0.2" stop-color="#000000" offset="1" data-stoptype="#000000"></stop></radialGradient></defs><g id="SvgjsG2008" transform="matrix(3.4000000953674316,0,0,3.4000000953674316,-326.79791259765625,-182.26434402465821)"><path id="SvgjsPath2009" d="M137.849 82.523c0.506-2.285-5.191-3.973-12.711-3.051 -7.518 0.923-12.738 5.524-12.052 7.844 0.38 1.286 10.639 3.245 14.253 2.847C131.003 89.758 136.627 88.04 137.849 82.523z" data-colored="false" data-fillType="gradient" data-strokeType="none" fill="url(#svga-eyesfront-gradient-right-0-0)" opacity="1"></path><path id="SvgjsPath2016" d="M131.303 84.138c0 3.313-2.687 6-6 6s-6-2.687-6-6 2.687-6 6-6S131.303 80.824 131.303 84.138z" data-colored="false" data-fillType="#0b1718" data-strokeType="none" fill="#0b1718" stroke-width="none" opacity="1"></path><path id="SvgjsPath2023" d="M137.849 82.523c0.506-2.285-5.191-3.973-12.711-3.051 -7.518 0.923-12.738 5.524-12.052 7.844 0.38 1.286 10.639 3.245 14.253 2.847C131.003 89.758 136.627 88.04 137.849 82.523z" data-colored="false" data-fillType="gradient" data-strokeType="none" fill="url(#svga-eyesfront-gradient-right-0-4)" opacity="1"></path><path id="SvgjsPath2027" d="M137.452 77.417c-4.208-1.978-9.35-2.16-13.838-1.005 -2.404 0.561-4.965 1.285-7.063 2.638 -1.945 1.135-3.525 2.5-5.002 4.19 1.342-1.701 2.773-3.118 4.623-4.27 2.276-1.416 4.769-2.294 7.364-2.916C128.123 74.928 133.259 75.184 137.452 77.417z" data-colored="true" data-fillType="sd3" data-strokeType="none" data-fromskin="true" fill="#c27b55" stroke-width="none" opacity="1"></path><path id="SvgjsPath2028" d="M136.832 78.02c-0.88-0.352-4.065-1-5.456-1.066 -1.687-0.082-5.073 0.125-6.735 0.424 -3.374 0.608-9.251 2.483-11.678 7.184 -0.746 1.445-0.074 2.456 0.123 2.675 -0.3-2.426 4.838-6.746 12.052-7.604 7.52-0.894 13.217 0.743 12.711 2.958 -1.222 5.348-6.846 7.013-10.51 7.405 -4.099 0.439-11.684-1.539-12.686-1.753 1.999 1.009 7.524 2.095 9.767 2.303 0.744 0.07 2.24 0.104 2.986 0.085 5.949-0.158 10.169-3.175 11.729-7.26C140.137 80.745 139.041 78.902 136.832 78.02z" data-colored="true" data-fillType="tone" data-strokeType="none" fill="#000000" stroke-width="none" opacity="1"></path></g></svg>