<svg id="svga-svgcanvas-elements-mouth-0" xmlns="http://www.w3.org/2000/svg" version="1.1" xmlns:xlink="http://www.w3.org/1999/xlink" xmlns:svgjs="http://svgjs.com/svgjs" class="avatar-elements__svg" viewBox="0 0 200 200" preserveAspectRatio="xMinYMin meet"><defs id="SvgjsDefs2689"><linearGradient id="svga-mouth-gradient-single-0-0" x1="100" y1="142" x2="100" y2="139" gradientUnits="userSpaceOnUse"><stop id="SvgjsStop2693" stop-opacity="1" stop-color="#e8b9a0" offset="0.1" data-stoptype="sd05"></stop><stop id="SvgjsStop2694" stop-opacity="1" stop-color="#e1ac8f" offset="1" data-stoptype="sd1"></stop></linearGradient></defs><g id="SvgjsG2690" transform="matrix(4,0,0,4,-300.01123046875,-448.6863098144531)"><path id="SvgjsPath2691" d="M96.227 139.237l8.297-0.207C103.563 143.5 96.884 142.858 96.227 139.237z" data-colored="false" data-fillType="gradient" data-strokeType="none" data-fromskin="true" fill="url(#svga-mouth-gradient-single-0-0)" opacity="1"></path><path id="SvgjsPath2695" d="M96.343 139.52c-0.371-0.05-0.315-0.579 0.08-0.542 0.043 0.006 4.308 0.546 7.878-0.215 0.386-0.075 0.5 0.455 0.13 0.534C101.634 139.895 98.015 139.755 96.343 139.52zM100.083 135.95c-1.503 0-2.96-0.521-4.424-0.776 -1.64-0.287-3.274-0.041-4.915 0.104 -1.676 0.149-5.333-0.013-6.365-0.666 -0.578-0.367-0.47-1.221 0.181-1.449 0.614-0.22 1.571 0.236 2.191 0.347 2.872 0.515 4.384-0.034 6.902-0.118 3.851-0.116 4.26 1.501 9.064 0.53 5.165-1.044 7.491-0.254 11.197-1.37 0.508-0.154 1.112-0.56 1.645-0.286 0.615 0.318 0.585 1.185-0.049 1.464 -3.406 1.502-7.174 0.895-10.955 1.526C103.073 135.502 101.596 135.95 100.083 135.95z" data-colored="true" data-fillType="sd3" data-strokeType="none" data-fromskin="true" fill="#c27b55" stroke-width="none" opacity="1"></path></g></svg>