<svg id="svga-svgcanvas-elements-mouth-2" xmlns="http://www.w3.org/2000/svg" version="1.1" xmlns:xlink="http://www.w3.org/1999/xlink" xmlns:svgjs="http://svgjs.com/svgjs" class="avatar-elements__svg" viewBox="0 0 200 200" preserveAspectRatio="xMinYMin meet"><defs id="SvgjsDefs2705"></defs><g id="SvgjsG2706" transform="matrix(4,0,0,4,-302.0472412109375,-439.4548645019531)"><path id="SvgjsPath2707" d="M94.859 137.427c0.259 0.002 11.018-0.099 11.018-0.099s-3.174 0.714-5.865 0.688C97.688 137.997 94.859 137.427 94.859 137.427z" data-colored="true" data-fillType="sd1" data-strokeType="none" data-fromskin="true" fill="#e1ac8f" stroke-width="none" opacity="1"></path><path id="SvgjsPath2708" d="M86.537 135.998c-0.649-0.642 3.796-2.875 5.987-3.547 2.769-0.882 5.481-0.17 8.3-0.383 2.571-0.195 4.901-0.735 7.421 0.076 2.277 0.733 6.579 3.048 6.292 3.601 -0.289 0.558-4.189-1.703-6.378-2.18 -2.508-0.534-4.781 0.241-7.28 0.488 -2.558 0.254-5.083-0.713-7.64-0.307C90.92 134.114 86.894 136.351 86.537 135.998z" data-colored="true" data-fillType="sd3" data-strokeType="none" data-fromskin="true" fill="#c27b55" stroke-width="none" opacity="1"></path></g></svg>