<svg id="svga-svgcanvas-elements-mouth-4" xmlns="http://www.w3.org/2000/svg" version="1.1" xmlns:xlink="http://www.w3.org/1999/xlink" xmlns:svgjs="http://svgjs.com/svgjs" class="avatar-elements__svg" viewBox="0 0 200 200" preserveAspectRatio="xMinYMin meet"><defs id="SvgjsDefs2720"><linearGradient id="svga-mouth-gradient-single-4-0" x1="100" y1="142" x2="100" y2="139" gradientUnits="userSpaceOnUse"><stop id="SvgjsStop2724" stop-opacity="1" stop-color="#e8b9a0" offset="0.1" data-stoptype="sd05"></stop><stop id="SvgjsStop2725" stop-opacity="1" stop-color="#e1ac8f" offset="1" data-stoptype="sd1"></stop></linearGradient></defs><g id="SvgjsG2721" transform="matrix(4,0,0,4,-299.20745849609375,-449.39154052734375)"><path id="SvgjsPath2722" d="M99.825 142.068c-3.24 0-4.753-2.802-4.753-2.802s4.797 0.781 9.279-0.064C104.352 139.202 102.675 142.068 99.825 142.068z" data-colored="false" data-fillType="gradient" data-strokeType="none" data-fromskin="true" fill="url(#svga-mouth-gradient-single-4-0)" opacity="1"></path><path id="SvgjsPath2726" d="M95.211 139.349c-0.132-0.039-0.23-0.149-0.208-0.285 0.021-0.137 0.151-0.224 0.286-0.209 3.612 0.857 5.963 0.661 8.766-0.043 0.145-0.035 0.27 0.062 0.297 0.195s-0.063 0.256-0.193 0.296C101.098 140.207 98.142 140.241 95.211 139.349zM85.447 133.958c0.313-0.144 0.582-0.086 1.073-0.115 1.419-0.249 3.128-0.323 4.54-0.611 1.348-0.274 2.774-0.662 4.158-0.597 1.488 0.071 2.879 0.669 4.353 0.829 1.401 0.151 2.708-0.229 4.053-0.557 1.542-0.376 3.01-0.287 4.56 0.006 1.938 0.363 3.774 0.857 5.689 1.038 0.582 0.055 0.365 0.413 0.032 0.454 -1.713 0.205-3.431-0.068-5.194-0.249 -1.425-0.146-2.868-0.329-4.274 0.021 -1.518 0.379-3.437 0.822-4.605 0.808 -1.3-0.017-2.521-0.538-3.784-0.807 -1.551-0.327-3.091-0.02-4.647 0.143 -1.938 0.201-3.672 0.34-5.579 0.047C85.312 134.29 85.306 134.023 85.447 133.958z" data-colored="true" data-fillType="sd3" data-strokeType="none" data-fromskin="true" fill="#c27b55" stroke-width="none" opacity="1"></path></g></svg>