<svg id="svga-svgcanvas-elements-eyesfront-1" xmlns="http://www.w3.org/2000/svg" version="1.1" xmlns:xlink="http://www.w3.org/1999/xlink" xmlns:svgjs="http://svgjs.com/svgjs" class="avatar-elements__svg" viewBox="0 0 200 200" preserveAspectRatio="xMinYMin meet"><defs id="SvgjsDefs2030"><radialGradient id="svga-eyesfront-gradient-right-1-0" cx="126.801" cy="84.835" r="14" gradientUnits="userSpaceOnUse"><stop id="SvgjsStop2034" stop-opacity="1" stop-color="#ffffff" offset="0" data-stoptype="#ffffff"></stop><stop id="SvgjsStop2035" stop-opacity="1" stop-color="#fdfefe" offset="0.544" data-stoptype="#fdfefe"></stop><stop id="SvgjsStop2036" stop-opacity="1" stop-color="#f6f8f9" offset="0.74" data-stoptype="#f6f8f9"></stop><stop id="SvgjsStop2037" stop-opacity="1" stop-color="#eaeff2" offset="0.879" data-stoptype="#eaeff2"></stop><stop id="SvgjsStop2038" stop-opacity="1" stop-color="#d9e3e8" offset="0.992" data-stoptype="#d9e3e8"></stop><stop id="SvgjsStop2039" stop-opacity="1" stop-color="#d8e2e7" offset="1" data-stoptype="#d8e2e7"></stop></radialGradient><radialGradient id="svga-eyesfront-gradient-right-1-3" cx="124.961" cy="83.943" fx="138.535" fy="82.45" r="18.705" gradientTransform="matrix(-0.9998 0.0208 -0.0131 -0.6281 250.9922 134.0695)" gradientUnits="userSpaceOnUse"><stop id="SvgjsStop2044" stop-opacity="1" stop-color="#e1ac8f" offset="0" data-stoptype="sd1"></stop><stop id="SvgjsStop2045" stop-opacity="0.3" stop-color="#e1ac8f" offset="0.7" data-stoptype="sd1"></stop><stop id="SvgjsStop2046" stop-opacity="0" stop-color="#f0c7b1" offset="1" data-stoptype="tone"></stop></radialGradient><radialGradient id="svga-eyesfront-gradient-right-1-4" cx="68.065" cy="106.876" r="29.506" gradientTransform="matrix(-1.0322 -0.0541 -0.0541 1.0322 205.8938 5.3986)" gradientUnits="userSpaceOnUse"><stop id="SvgjsStop2049" stop-opacity="0" stop-color="#000000" offset="0.95" data-stoptype="#000000"></stop><stop id="SvgjsStop2050" stop-opacity="0.2" stop-color="#000000" offset="1" data-stoptype="#000000"></stop></radialGradient></defs><g id="SvgjsG2031" transform="matrix(3.4000000953674316,0,0,3.4000000953674316,-328.9933166503906,-184.30017547607417)"><path id="SvgjsPath2032" d="M120.737 89.23c4.31 0.755 7.656 0.71 10.688-0.204 3.127-0.943 7.188-4.825 8.596-8.495 -3.715-0.277-11.349-0.597-14.89-0.154 -4.688 0.586-9.474 2.406-12.305 5.236 0.016 0.294 0.053 0.583 0.087 0.872C115.199 88.032 118.435 88.826 120.737 89.23z" data-colored="false" data-fillType="gradient" data-strokeType="none" fill="url(#svga-eyesfront-gradient-right-1-0)" opacity="1"></path><path id="SvgjsPath2040" d="M129.542,80.16c-3.04,0.021-5.148,0.154-8.097,0.938c-2.107,2.46-1.886,6.13,0.514,8.323c3.142,0.456,5.768,0.447,8.152-0.063C132.854,86.773,132.564,82.377,129.542,80.16z" data-colored="false" data-fillType="#0b1718" data-strokeType="none" fill="#0b1718" stroke-width="none" opacity="1"></path><path id="SvgjsPath2047" d="M140.021 80.531c-3.715-0.277-11.349-0.597-14.89-0.154 -4.952 0.619-10.04 2.6-12.788 5.71 2.289 1.82 5.897 2.705 8.395 3.143 4.31 0.755 7.656 0.71 10.688-0.204C134.552 88.083 138.612 84.201 140.021 80.531z" data-colored="false" data-fillType="gradient" data-strokeType="none" fill="url(#svga-eyesfront-gradient-right-1-4)" opacity="1"></path><path id="SvgjsPath2051" d="M113.697 81.396c4.491-2.822 7.736-4.781 18.34-4.3C130.57 77.042 121.158 77.023 113.697 81.396zM135.137 89.016c-1.154 0.617-2.689 1.205-2.664 1.196 2.734-1.164 4.678-0.564 7.531-6.058C138.492 86.564 138.127 87.296 135.137 89.016z" data-colored="true" data-fillType="sd3" data-strokeType="none" data-fromskin="true" fill="#c27b55" stroke-width="none" opacity="1"></path><path id="SvgjsPath2052" d="M124.787 79.305c-5.816 0.587-10.176 2.165-13.57 7.358 3.79 2.809 8.301 3.483 15.584 3.374 9.57-0.145 11.474-4.079 14.331-10.071C141.132 79.966 130.686 78.709 124.787 79.305zM131.074 88.754c-2.828 0.853-5.951 0.895-9.973 0.19 -2.33-0.409-5.697-1.234-7.834-2.933 2.564-2.902 7.313-4.751 11.934-5.328 3.305-0.413 10.428-0.114 13.895 0.144C137.781 84.252 133.992 87.875 131.074 88.754z" data-colored="true" data-fillType="tone" data-strokeType="none" fill="#000000" stroke-width="none" opacity="1"></path></g></svg>