<svg id="svga-svgcanvas-elements-eyesfront-9" xmlns="http://www.w3.org/2000/svg" version="1.1" xmlns:xlink="http://www.w3.org/1999/xlink" xmlns:svgjs="http://svgjs.com/svgjs" class="avatar-elements__svg" viewBox="0 0 200 200" preserveAspectRatio="xMinYMin meet"><defs id="SvgjsDefs2222"><radialGradient id="svga-eyesfront-gradient-right-9-0" cx="125.89" cy="84.919" r="10.712" gradientUnits="userSpaceOnUse"><stop id="SvgjsStop2226" stop-opacity="1" stop-color="#ffffff" offset="0" data-stoptype="#ffffff"></stop><stop id="SvgjsStop2227" stop-opacity="1" stop-color="#fdfefe" offset="0.544" data-stoptype="#fdfefe"></stop><stop id="SvgjsStop2228" stop-opacity="1" stop-color="#f6f8f9" offset="0.74" data-stoptype="#f6f8f9"></stop><stop id="SvgjsStop2229" stop-opacity="1" stop-color="#eaeff2" offset="0.879" data-stoptype="#eaeff2"></stop><stop id="SvgjsStop2230" stop-opacity="1" stop-color="#d9e3e8" offset="0.992" data-stoptype="#d9e3e8"></stop><stop id="SvgjsStop2231" stop-opacity="1" stop-color="#d8e2e7" offset="1" data-stoptype="#d8e2e7"></stop></radialGradient><radialGradient id="svga-eyesfront-gradient-right-9-3" cx="123.315" cy="85.489" fx="135.034" fy="85.522" r="16.667" gradientTransform="matrix(-0.9998 0.0208 -0.0166 -0.7998 248.0273 151.299)" gradientUnits="userSpaceOnUse"><stop id="SvgjsStop2236" stop-opacity="1" stop-color="#e1ac8f" offset="0" data-stoptype="sd1"></stop><stop id="SvgjsStop2237" stop-opacity="0.3" stop-color="#e1ac8f" offset="0.7" data-stoptype="sd1"></stop><stop id="SvgjsStop2238" stop-opacity="0" stop-color="#f0c7b1" offset="1" data-stoptype="tone"></stop></radialGradient><radialGradient id="svga-eyesfront-gradient-right-9-4" cx="122.475" cy="101.325" r="26.878" gradientTransform="matrix(1 0 0 0.7923 0 21.0491)" gradientUnits="userSpaceOnUse"><stop id="SvgjsStop2241" stop-opacity="0" stop-color="#000000" offset="0.95" data-stoptype="#000000"></stop><stop id="SvgjsStop2242" stop-opacity="0.2" stop-color="#000000" offset="1" data-stoptype="#000000"></stop></radialGradient></defs><g id="SvgjsG2223" transform="matrix(3.4000000953674316,0,0,3.4000000953674316,-331.1239013671875,-188.90948257446288)"><path id="SvgjsPath2224" d="M139.879 85.795c-2.578 4.596-2.19 5.704-10.268 4.467 -9.691 0-17.711-1.976-17.711-5.558 0-3.582 4.925-7.115 17.196-4.923C135.111 80.855 139.879 84 139.879 85.795z" data-colored="false" data-fillType="gradient" data-strokeType="none" fill="url(#svga-eyesfront-gradient-right-9-0)" opacity="1"></path><path id="SvgjsPath2232" d="M122.292,79.118c-4.746,3.387-2.338,10.881,3.479,10.881c5.183,0,7.902-6.137,4.479-9.982C128.186,79.546,125.046,79.125,122.292,79.118z" data-colored="false" data-fillType="#0b1718" data-strokeType="none" fill="#0b1718" stroke-width="none" opacity="1"></path><path id="SvgjsPath2239" d="M139.879 85.795c-2.578 4.596-2.19 5.704-10.268 4.467 -9.691 0-17.711-1.976-17.711-5.558 0-3.582 4.925-7.115 17.196-4.923C135.111 80.855 139.879 84 139.879 85.795z" data-colored="false" data-fillType="gradient" data-strokeType="none" fill="url(#svga-eyesfront-gradient-right-9-4)" opacity="1"></path><path id="SvgjsPath2243" d="M112.885 88.797c0 0 1.383 0.778 2.354 1.036 1.209 0.318 4.997 0.895 11.562 1.795 -7.49-0.531-10.48-0.82-11.762-1.189C114.022 90.147 112.885 88.797 112.885 88.797z" data-colored="true" data-fillType="sd3" data-strokeType="none" data-fromskin="true" fill="#c27b55" stroke-width="none" opacity="1"></path><path id="SvgjsPath2244" d="M115.973 78.555c19.522-1.179 22.656 2.209 25.828 6.735l-3.114 2.69 0.536-2.4c-3.32-4.56-11.839-6.551-23.25-5.247l-3.871 3.383c-0.072 0.063-0.179 0.06-0.247-0.007 -0.067-0.066-0.072-0.174-0.011-0.247C112.464 81.935 113.668 80.808 115.973 78.555zM136.438 91.09l1.653-2.046 -2.25 1.384c-11.621-0.903-18.688-1.109-22.642-3.426 -0.113-0.021-0.228 0.032-0.279 0.135 -0.054 0.102-0.034 0.227 0.048 0.306C114.595 89.756 123.856 90.501 136.438 91.09z" data-colored="true" data-fillType="tone" data-strokeType="none" fill="#000000" stroke-width="none" opacity="1"></path></g></svg>