<svg id="svga-svgcanvas-elements-eyesfront-14" xmlns="http://www.w3.org/2000/svg" version="1.1" xmlns:xlink="http://www.w3.org/1999/xlink" xmlns:svgjs="http://svgjs.com/svgjs" class="avatar-elements__svg" viewBox="0 0 200 200" preserveAspectRatio="xMinYMin meet"><defs id="SvgjsDefs2332"><radialGradient id="svga-eyesfront-gradient-right-14-0" cx="125.861" cy="84.497" r="10.213" gradientUnits="userSpaceOnUse"><stop id="SvgjsStop2336" stop-opacity="1" stop-color="#ffffff" offset="0" data-stoptype="#ffffff"></stop><stop id="SvgjsStop2337" stop-opacity="1" stop-color="#fdfefe" offset="0.544" data-stoptype="#fdfefe"></stop><stop id="SvgjsStop2338" stop-opacity="1" stop-color="#f6f8f9" offset="0.74" data-stoptype="#f6f8f9"></stop><stop id="SvgjsStop2339" stop-opacity="1" stop-color="#eaeff2" offset="0.879" data-stoptype="#eaeff2"></stop><stop id="SvgjsStop2340" stop-opacity="1" stop-color="#d9e3e8" offset="0.992" data-stoptype="#d9e3e8"></stop><stop id="SvgjsStop2341" stop-opacity="1" stop-color="#d8e2e7" offset="1" data-stoptype="#d8e2e7"></stop></radialGradient><radialGradient id="svga-eyesfront-gradient-right-14-3" cx="123.755" cy="83.738" fx="136.19" fy="83.773" r="17.685" gradientTransform="matrix(-0.9998 0.0208 -0.0166 -0.7998 248.8769 148.1393)" gradientUnits="userSpaceOnUse"><stop id="SvgjsStop2346" stop-opacity="1" stop-color="#e1ac8f" offset="0" data-stoptype="sd1"></stop><stop id="SvgjsStop2347" stop-opacity="0.3" stop-color="#e1ac8f" offset="0.7" data-stoptype="sd1"></stop><stop id="SvgjsStop2348" stop-opacity="0" stop-color="#f0c7b1" offset="1" data-stoptype="tone"></stop></radialGradient><radialGradient id="svga-eyesfront-gradient-right-14-4" cx="122.636" cy="100.958" r="25.824" gradientTransform="matrix(0.8746 -0.4848 0.3636 0.656 -21.3328 94.1879)" gradientUnits="userSpaceOnUse"><stop id="SvgjsStop2351" stop-opacity="0" stop-color="#000000" offset="0.94" data-stoptype="#000000"></stop><stop id="SvgjsStop2352" stop-opacity="0.2" stop-color="#000000" offset="1" data-stoptype="#000000"></stop></radialGradient></defs><g id="SvgjsG2333" transform="matrix(3.4000000953674316,0,0,3.4000000953674316,-328.3135986328125,-185.1493324279785)"><path id="SvgjsPath2334" d="M139.059 83.152c0.216 2.76-1.682 6.038-12.492 6.964 -9.553 0.818-13.62-0.758-13.903-3.902s3.407-6.987 12.88-7.482C133.975 78.292 138.813 80.005 139.059 83.152z" data-colored="false" data-fillType="gradient" data-strokeType="none" fill="url(#svga-eyesfront-gradient-right-14-0)" opacity="1"></path><path id="SvgjsPath2342" d="M131.977 84.522c-0.287 3.301-3.199 5.743-6.499 5.454 -3.302-0.289-5.743-3.199-5.454-6.5 0.289-3.301 3.198-5.743 6.5-5.454C129.824 78.311 132.266 81.221 131.977 84.522z" data-colored="false" data-fillType="#0b1718" data-strokeType="none" fill="#0b1718" stroke-width="none" opacity="1"></path><path id="SvgjsPath2349" d="M139.059 83.152c0.216 2.76-1.682 6.038-12.492 6.964 -9.553 0.818-13.62-0.758-13.903-3.902s3.407-6.987 12.88-7.482C133.975 78.292 138.813 80.005 139.059 83.152z" data-colored="false" data-fillType="gradient" data-strokeType="none" fill="url(#svga-eyesfront-gradient-right-14-4)" opacity="1"></path><path id="SvgjsPath2353" d="M112.045 81.529c0 0 1.063-1.675 2.082-2.366s3.59-1.279 3.59-1.279 -2.26 0.929-3.285 1.602S112.045 81.529 112.045 81.529zM137.161 78.451c1.164 0.776 2.813 2.501 2.813 2.501s-0.714-1.61-2.448-2.685c-1.889-1.169-4.546-1.136-4.546-1.136S136.073 77.725 137.161 78.451z" data-colored="true" data-fillType="sd3" data-strokeType="none" data-fromskin="true" fill="#c27b55" stroke-width="none" opacity="1"></path><path id="SvgjsPath2354" d="M112.975 87.32c-3.938-5.489 4.548-9.17 11.685-9.764 14.733-1.227 17.195 5.648 13.992 7.583 2.204-5.833-7.253-6.425-13.409-6.209C119.2 79.142 111.728 81.582 112.975 87.32zM117.239 90.604c5.376-0.04 8.619-0.104 13.408-0.382 2.85-0.165 5.406-1.528 6.943-3.226 -2.668 1.241-4.717 2.363-6.996 2.467 -4.945 0.225-7.902 0.589-13.196 0.504l-3.021-0.956L117.239 90.604z" data-colored="true" data-fillType="tone" data-strokeType="none" fill="#000000" stroke-width="none" opacity="1"></path></g></svg>