<svg preserveAspectRatio="xMinYMin meet" viewBox="0 0 200 200" class="avatar-elements__svg" xmlns:xlink="http://www.w3.org/1999/xlink" version="1.1" xmlns="http://www.w3.org/2000/svg" id="svga-svgcanvas-elements-nose-0"><defs id="SvgjsDefs2686"></defs><g transform="matrix(4,0,0,4,-299.4756774902344,-323.9982452392578)" id="SvgjsG2687"><path opacity="1" stroke-width="none" fill="#e4b3ab" data-fromskin="true" data-stroketype="none" data-filltype="sd1" data-colored="true" d="M92.281 116.235c-0.745 2.063 5.028 4.289 7.218 4.426 2.374 0.147 9.024-2.899 7.896-4.991 -1.185-2.197-5.63-0.286-7.547-0.286C97.94 115.384 93.276 113.479 92.281 116.235z" id="SvgjsPath2688"></path><path opacity="1" stroke-width="none" fill="#c5796d" data-fromskin="true" data-stroketype="none" data-filltype="sd3" data-colored="true" d="M102.207 117.221c-0.243-0.522 1.194-1.333 1.748-1.493 0.777-0.226 2.505 0.238 2.438 0.831 -0.06 0.521-1.603-0.169-2.105-0.022C103.767 116.687 102.435 117.712 102.207 117.221zM95.214 116.742c0.706 0 1.753 0.457 1.945 0.057 0.229-0.479-1.56-1.065-2.086-1 -0.434 0.052-1.991 0.958-1.777 1.338C93.496 117.49 94.284 116.742 95.214 116.742z" id="SvgjsPath2689"></path><path opacity="0.2" stroke-width="none" fill="#ffffff" data-fromskin="true" data-stroketype="none" data-filltype="hl2" data-colored="true" d="M99.857 113.479c0.669 0 1.807-0.637 1.978-1.9 0.754-5.575-0.521-20.246-1.978-20.246 -1.365 0-2.508 15.024-2.155 20.246C97.789 112.86 99.099 113.479 99.857 113.479" id="SvgjsPath2690"></path></g></svg>