<svg preserveAspectRatio="xMinYMin meet" viewBox="0 0 200 200" class="avatar-elements__svg" xmlns:xlink="http://www.w3.org/1999/xlink" version="1.1" xmlns="http://www.w3.org/2000/svg" id="svga-svgcanvas-elements-nose-6"><defs id="SvgjsDefs2718"></defs><g transform="matrix(4,0,0,4,-298.3332214355469,-335.78294372558594)" id="SvgjsG2719"><path opacity="1" stroke-width="none" fill="#e4b3ab" data-fromskin="true" data-stroketype="none" data-filltype="sd1" data-colored="true" d="M100.906,119.814c-0.402,0.434-0.73,0.381-1.108-0.07c0,0-4.82-3.077-4.208-4.488c0.967-2.233,9.735,0,9.735,0L100.906,119.814z" id="SvgjsPath2720"></path><path opacity="1" stroke-width="none" fill="#c5796d" data-fromskin="true" data-stroketype="none" data-filltype="sd3" data-colored="true" d="M94.389,113.263c0,0,4.937-12.754,5.366-15.484c0.814,4.431-1.917,14.293-2.125,16.306c-0.251,2.444,2.645,5.497,2.645,5.497c0.238,0.544,0.062,0.682-0.395,0.313l-5.077-3.354C93.601,115.627,93.601,114.756,94.389,113.263z M102.579,115.924c0.7,0.143,0.847,0.395,0.793,0.655c-0.054,0.264-0.354,0.625-0.986,0.295c-0.695-0.36-2.005-0.525-2.005-0.525S101.879,115.78,102.579,115.924z" id="SvgjsPath2721"></path></g></svg>